<?xml version="1.0" encoding="us-ascii" standalone="no"?><svg xmlns="http://www.w3.org/2000/svg" xmlns:xlink="http://www.w3.org/1999/xlink" contentStyleType="text/css" height="525px" preserveAspectRatio="none" style="width:764px;height:525px;background:#FFFFFF;" version="1.1" viewBox="0 0 764 525" width="764px" zoomAndPan="magnify"><defs/><g><!--cluster Deeper--><g id="cluster_Deeper"><path d="M8.5,6 L59.5,6 A3.75,3.75 0 0 1 62,8.5 L69,28.4883 L754.5,28.4883 A2.5,2.5 0 0 1 757,30.9883 L757,516.36 A2.5,2.5 0 0 1 754.5,518.86 L8.5,518.86 A2.5,2.5 0 0 1 6,516.36 L6,8.5 A2.5,2.5 0 0 1 8.5,6 " fill="none" style="stroke:#000000;stroke-width:1.5;"/><line style="stroke:#000000;stroke-width:1.5;" x1="6" x2="69" y1="28.4883" y2="28.4883"/><text fill="#000000" font-family="sans-serif" font-size="14" font-weight="bold" lengthAdjust="spacing" textLength="50" x="10" y="21.5352">Deeper</text></g><!--class Trace--><g id="elem_Trace"><rect codeLine="4" fill="#F1F1F1" height="97.4648" id="Trace" rx="2.5" ry="2.5" style="stroke:#181818;stroke-width:0.5;" width="138" x="22" y="41"/><ellipse cx="67.75" cy="57" fill="#ADD1B2" rx="11" ry="11" style="stroke:#181818;stroke-width:1.0;"/><path d="M70.2231,63.1431 Q69.6421,63.4419 69.0029,63.5913 Q68.3638,63.7407 67.6582,63.7407 Q65.1514,63.7407 63.8315,62.0889 Q62.5117,60.437 62.5117,57.3159 Q62.5117,54.1865 63.8315,52.5347 Q65.1514,50.8828 67.6582,50.8828 Q68.3638,50.8828 69.0112,51.0322 Q69.6587,51.1816 70.2231,51.4805 L70.2231,54.2031 Q69.5923,53.6221 68.9988,53.3523 Q68.4053,53.0825 67.7744,53.0825 Q66.4297,53.0825 65.7449,54.1492 Q65.0601,55.2158 65.0601,57.3159 Q65.0601,59.4077 65.7449,60.4744 Q66.4297,61.541 67.7744,61.541 Q68.4053,61.541 68.9988,61.2712 Q69.5923,61.0015 70.2231,60.4204 Z " fill="#000000"/><text fill="#000000" font-family="sans-serif" font-size="14" lengthAdjust="spacing" textLength="38" x="88.25" y="62.291">Trace</text><line style="stroke:#181818;stroke-width:0.5;" x1="23" x2="159" y1="73" y2="73"/><ellipse cx="33" cy="86.7441" fill="none" rx="3" ry="3" style="stroke:#038048;stroke-width:1.0;"/><text fill="#000000" font-family="sans-serif" font-size="14" lengthAdjust="spacing" textLength="86" x="42" y="90.5352">Value: string</text><ellipse cx="33" cy="103.2324" fill="none" rx="3" ry="3" style="stroke:#038048;stroke-width:1.0;"/><text fill="#000000" font-family="sans-serif" font-size="14" lengthAdjust="spacing" textLength="112" x="42" y="107.0234">Type: TraceType</text><line style="stroke:#181818;stroke-width:0.5;" x1="23" x2="159" y1="113.9766" y2="113.9766"/><ellipse cx="33" cy="127.7207" fill="#84BE84" rx="3" ry="3" style="stroke:#038048;stroke-width:1.0;"/><text fill="#000000" font-family="sans-serif" font-size="14" lengthAdjust="spacing" textLength="99" x="42" y="131.5117">String(): string</text></g><!--class TraceType--><g id="elem_TraceType"><rect codeLine="10" fill="#F1F1F1" height="163.418" id="TraceType" rx="2.5" ry="2.5" style="stroke:#181818;stroke-width:0.5;" width="251" x="21.5" y="198.47"/><ellipse cx="107.25" cy="214.47" fill="#EB937F" rx="11" ry="11" style="stroke:#181818;stroke-width:1.0;"/><path d="M110.8643,220.97 L103.1445,220.97 L103.1445,208.5769 L110.8643,208.5769 L110.8643,210.7351 L105.5933,210.7351 L105.5933,213.408 L110.3662,213.408 L110.3662,215.5662 L105.5933,215.5662 L105.5933,218.8118 L110.8643,218.8118 Z " fill="#000000"/><text fill="#000000" font-family="sans-serif" font-size="14" lengthAdjust="spacing" textLength="71" x="127.75" y="219.761">TraceType</text><line style="stroke:#181818;stroke-width:0.5;" x1="22.5" x2="271.5" y1="230.47" y2="230.47"/><text fill="#000000" font-family="sans-serif" font-size="14" lengthAdjust="spacing" textLength="37" x="27.5" y="248.0052">Email</text><text fill="#000000" font-family="sans-serif" font-size="14" lengthAdjust="spacing" textLength="43" x="27.5" y="264.4934">Phone</text><text fill="#000000" font-family="sans-serif" font-size="14" lengthAdjust="spacing" textLength="53" x="27.5" y="280.9817">Domain</text><text fill="#000000" font-family="sans-serif" font-size="14" lengthAdjust="spacing" textLength="69" x="27.5" y="297.47">Username</text><text fill="#000000" font-family="sans-serif" font-size="14" lengthAdjust="spacing" textLength="78" x="27.5" y="313.9583">Subdomain</text><text fill="#000000" font-family="sans-serif" font-size="14" lengthAdjust="spacing" textLength="41" x="27.5" y="330.4466">Whois</text><text fill="#000000" font-family="sans-serif" font-size="14" lengthAdjust="spacing" textLength="239" x="27.5" y="346.9348">// Add other trace types as needed</text><line style="stroke:#181818;stroke-width:0.5;" x1="22.5" x2="271.5" y1="353.888" y2="353.888"/></g><!--class DeeperPlugin--><g id="elem_DeeperPlugin"><rect codeLine="20" fill="#F1F1F1" height="97.4648" id="DeeperPlugin" rx="2.5" ry="2.5" style="stroke:#181818;stroke-width:0.5;" width="255" x="344.5" y="231.44"/><ellipse cx="421.75" cy="247.44" fill="#B4A7E5" rx="11" ry="11" style="stroke:#181818;stroke-width:1.0;"/><path d="M418.1777,243.7051 L418.1777,241.5469 L425.5571,241.5469 L425.5571,243.7051 L423.0918,243.7051 L423.0918,251.7818 L425.5571,251.7818 L425.5571,253.94 L418.1777,253.94 L418.1777,251.7818 L420.6431,251.7818 L420.6431,243.7051 Z " fill="#000000"/><text fill="#000000" font-family="sans-serif" font-size="14" font-style="italic" lengthAdjust="spacing" textLength="92" x="442.25" y="252.731">DeeperPlugin</text><line style="stroke:#181818;stroke-width:0.5;" x1="345.5" x2="598.5" y1="263.44" y2="263.44"/><line style="stroke:#181818;stroke-width:0.5;" x1="345.5" x2="598.5" y1="271.44" y2="271.44"/><ellipse cx="355.5" cy="285.1841" fill="#84BE84" rx="3" ry="3" style="stroke:#038048;stroke-width:1.0;"/><text fill="#000000" font-family="sans-serif" font-size="14" lengthAdjust="spacing" textLength="109" x="364.5" y="288.9752">Register(): error</text><ellipse cx="355.5" cy="301.6724" fill="#84BE84" rx="3" ry="3" style="stroke:#038048;stroke-width:1.0;"/><text fill="#000000" font-family="sans-serif" font-size="14" lengthAdjust="spacing" textLength="229" x="364.5" y="305.4634">FollowTrace(trace: Trace): Trace[]</text><ellipse cx="355.5" cy="318.1607" fill="#84BE84" rx="3" ry="3" style="stroke:#038048;stroke-width:1.0;"/><text fill="#000000" font-family="sans-serif" font-size="14" lengthAdjust="spacing" textLength="99" x="364.5" y="321.9517">String(): string</text></g><!--class SubdomainPlugin--><g id="elem_SubdomainPlugin"><rect codeLine="26" fill="#F1F1F1" height="97.4648" id="SubdomainPlugin" rx="2.5" ry="2.5" style="stroke:#181818;stroke-width:0.5;" width="255" x="195.5" y="41"/><ellipse cx="258.25" cy="57" fill="#ADD1B2" rx="11" ry="11" style="stroke:#181818;stroke-width:1.0;"/><path d="M260.7231,63.1431 Q260.1421,63.4419 259.5029,63.5913 Q258.8638,63.7407 258.1582,63.7407 Q255.6514,63.7407 254.3315,62.0889 Q253.0117,60.437 253.0117,57.3159 Q253.0117,54.1865 254.3315,52.5347 Q255.6514,50.8828 258.1582,50.8828 Q258.8638,50.8828 259.5112,51.0322 Q260.1587,51.1816 260.7231,51.4805 L260.7231,54.2031 Q260.0923,53.6221 259.4988,53.3523 Q258.9053,53.0825 258.2744,53.0825 Q256.9297,53.0825 256.2449,54.1492 Q255.5601,55.2158 255.5601,57.3159 Q255.5601,59.4077 256.2449,60.4744 Q256.9297,61.541 258.2744,61.541 Q258.9053,61.541 259.4988,61.2712 Q260.0923,61.0015 260.7231,60.4204 Z " fill="#000000"/><text fill="#000000" font-family="sans-serif" font-size="14" lengthAdjust="spacing" textLength="121" x="278.75" y="62.291">SubdomainPlugin</text><line style="stroke:#181818;stroke-width:0.5;" x1="196.5" x2="449.5" y1="73" y2="73"/><line style="stroke:#181818;stroke-width:0.5;" x1="196.5" x2="449.5" y1="81" y2="81"/><ellipse cx="206.5" cy="94.7441" fill="#84BE84" rx="3" ry="3" style="stroke:#038048;stroke-width:1.0;"/><text fill="#000000" font-family="sans-serif" font-size="14" lengthAdjust="spacing" textLength="109" x="215.5" y="98.5352">Register(): error</text><ellipse cx="206.5" cy="111.2324" fill="#84BE84" rx="3" ry="3" style="stroke:#038048;stroke-width:1.0;"/><text fill="#000000" font-family="sans-serif" font-size="14" lengthAdjust="spacing" textLength="229" x="215.5" y="115.0234">FollowTrace(trace: Trace): Trace[]</text><ellipse cx="206.5" cy="127.7207" fill="#84BE84" rx="3" ry="3" style="stroke:#038048;stroke-width:1.0;"/><text fill="#000000" font-family="sans-serif" font-size="14" lengthAdjust="spacing" textLength="99" x="215.5" y="131.5117">String(): string</text></g><!--class WhoisPlugin--><g id="elem_WhoisPlugin"><rect codeLine="32" fill="#F1F1F1" height="97.4648" id="WhoisPlugin" rx="2.5" ry="2.5" style="stroke:#181818;stroke-width:0.5;" width="255" x="485.5" y="41"/><ellipse cx="566.75" cy="57" fill="#ADD1B2" rx="11" ry="11" style="stroke:#181818;stroke-width:1.0;"/><path d="M569.2231,63.1431 Q568.6421,63.4419 568.0029,63.5913 Q567.3638,63.7407 566.6582,63.7407 Q564.1514,63.7407 562.8315,62.0889 Q561.5117,60.437 561.5117,57.3159 Q561.5117,54.1865 562.8315,52.5347 Q564.1514,50.8828 566.6582,50.8828 Q567.3638,50.8828 568.0112,51.0322 Q568.6587,51.1816 569.2231,51.4805 L569.2231,54.2031 Q568.5923,53.6221 567.9988,53.3523 Q567.4053,53.0825 566.7744,53.0825 Q565.4297,53.0825 564.7449,54.1492 Q564.0601,55.2158 564.0601,57.3159 Q564.0601,59.4077 564.7449,60.4744 Q565.4297,61.541 566.7744,61.541 Q567.4053,61.541 567.9988,61.2712 Q568.5923,61.0015 569.2231,60.4204 Z " fill="#000000"/><text fill="#000000" font-family="sans-serif" font-size="14" lengthAdjust="spacing" textLength="84" x="587.25" y="62.291">WhoisPlugin</text><line style="stroke:#181818;stroke-width:0.5;" x1="486.5" x2="739.5" y1="73" y2="73"/><line style="stroke:#181818;stroke-width:0.5;" x1="486.5" x2="739.5" y1="81" y2="81"/><ellipse cx="496.5" cy="94.7441" fill="#84BE84" rx="3" ry="3" style="stroke:#038048;stroke-width:1.0;"/><text fill="#000000" font-family="sans-serif" font-size="14" lengthAdjust="spacing" textLength="109" x="505.5" y="98.5352">Register(): error</text><ellipse cx="496.5" cy="111.2324" fill="#84BE84" rx="3" ry="3" style="stroke:#038048;stroke-width:1.0;"/><text fill="#000000" font-family="sans-serif" font-size="14" lengthAdjust="spacing" textLength="229" x="505.5" y="115.0234">FollowTrace(trace: Trace): Trace[]</text><ellipse cx="496.5" cy="127.7207" fill="#84BE84" rx="3" ry="3" style="stroke:#038048;stroke-width:1.0;"/><text fill="#000000" font-family="sans-serif" font-size="14" lengthAdjust="spacing" textLength="99" x="505.5" y="131.5117">String(): string</text></g><!--class State--><g id="elem_State"><rect codeLine="44" fill="#F1F1F1" height="80.9766" id="State" rx="2.5" ry="2.5" style="stroke:#181818;stroke-width:0.5;" width="433" x="173.5" y="421.88"/><ellipse cx="368.75" cy="437.88" fill="#ADD1B2" rx="11" ry="11" style="stroke:#181818;stroke-width:1.0;"/><path d="M371.2231,444.0231 Q370.6421,444.3219 370.0029,444.4713 Q369.3638,444.6207 368.6582,444.6207 Q366.1514,444.6207 364.8315,442.9689 Q363.5117,441.317 363.5117,438.1959 Q363.5117,435.0665 364.8315,433.4147 Q366.1514,431.7628 368.6582,431.7628 Q369.3638,431.7628 370.0112,431.9122 Q370.6587,432.0616 371.2231,432.3605 L371.2231,435.0831 Q370.5923,434.5021 369.9988,434.2323 Q369.4053,433.9625 368.7744,433.9625 Q367.4297,433.9625 366.7449,435.0292 Q366.0601,436.0958 366.0601,438.1959 Q366.0601,440.2877 366.7449,441.3544 Q367.4297,442.421 368.7744,442.421 Q369.4053,442.421 369.9988,442.1512 Q370.5923,441.8815 371.2231,441.3004 Z " fill="#000000"/><text fill="#000000" font-family="sans-serif" font-size="14" lengthAdjust="spacing" textLength="34" x="389.25" y="443.171">State</text><line style="stroke:#181818;stroke-width:0.5;" x1="174.5" x2="605.5" y1="453.88" y2="453.88"/><ellipse cx="184.5" cy="467.6241" fill="none" rx="3" ry="3" style="stroke:#038048;stroke-width:1.0;"/><text fill="#000000" font-family="sans-serif" font-size="14" lengthAdjust="spacing" textLength="332" x="193.5" y="471.4152">ActivePlugins: map&lt;TraceType, DeeperPlugin[]&gt;</text><line style="stroke:#181818;stroke-width:0.5;" x1="174.5" x2="605.5" y1="478.3683" y2="478.3683"/><ellipse cx="184.5" cy="492.1124" fill="#84BE84" rx="3" ry="3" style="stroke:#038048;stroke-width:1.0;"/><text fill="#000000" font-family="sans-serif" font-size="14" lengthAdjust="spacing" textLength="407" x="193.5" y="495.9034">RegisterPlugin(traceType: TraceType, plugin: DeeperPlugin)</text></g><!--link SubdomainPlugin to DeeperPlugin--><g id="link_SubdomainPlugin_DeeperPlugin"><path codeLine="38" d="M360.98,138.77 C383.4,167.12 400.5159,188.7704 422.9159,217.1004 " fill="none" id="SubdomainPlugin-to-DeeperPlugin" style="stroke:#181818;stroke-width:1.0;"/><polygon fill="none" points="434.08,231.22,427.6224,213.379,418.2094,220.8218,434.08,231.22" style="stroke:#181818;stroke-width:1.0;"/></g><!--link WhoisPlugin to DeeperPlugin--><g id="link_WhoisPlugin_DeeperPlugin"><path codeLine="39" d="M577.05,138.77 C555.84,167.12 539.8645,188.4784 518.6645,216.8084 " fill="none" id="WhoisPlugin-to-DeeperPlugin" style="stroke:#181818;stroke-width:1.0;"/><polygon fill="none" points="507.88,231.22,523.4684,220.4033,513.8607,213.2136,507.88,231.22" style="stroke:#181818;stroke-width:1.0;"/></g><!--link Trace to TraceType--><g id="link_Trace_TraceType"><path codeLine="41" d="M105.28,138.77 C110.66,156.87 115.22,172.2488 121.25,192.5288 " fill="none" id="Trace-to-TraceType" style="stroke:#181818;stroke-width:1.0;"/><polygon fill="#181818" points="122.96,198.28,124.2291,188.5132,121.535,193.4874,116.5608,190.7933,122.96,198.28" style="stroke:#181818;stroke-width:1.0;"/><text fill="#000000" font-family="sans-serif" font-size="13" lengthAdjust="spacing" textLength="8" x="112.3751" y="187.6212">1</text></g><!--link Trace to DeeperPlugin--><g id="link_Trace_DeeperPlugin"><path codeLine="42" d="M160.02,129.37 C166.07,132.52 172.12,135.59 178,138.47 C238.45,168.01 256.23,169.58 317,198.47 C338.37,208.63 355.7815,217.3319 377.0715,228.3519 " fill="none" id="Trace-to-DeeperPlugin" style="stroke:#181818;stroke-width:1.0;"/><polygon fill="#181818" points="382.4,231.11,376.246,223.4205,377.9596,228.8116,372.5685,230.5252,382.4,231.11" style="stroke:#181818;stroke-width:1.0;"/><text fill="#000000" font-family="sans-serif" font-size="13" lengthAdjust="spacing" textLength="22" x="346.2531" y="220.7461">1..*</text></g><!--link Trace to State--><g id="link_Trace_State"><path codeLine="49" d="M160.3,128.83 C166.28,132.1 172.24,135.35 178,138.47 C227.64,165.38 255.79,153.54 290,198.47 C335.12,257.71 298.44,293.11 327,361.88 C335.62,382.65 345.1118,398.9679 356.9518,416.4979 " fill="none" id="Trace-to-State" style="stroke:#181818;stroke-width:1.0;"/><polygon fill="#181818" points="360.31,421.47,358.5874,411.773,357.5115,417.3266,351.9579,416.2506,360.31,421.47" style="stroke:#181818;stroke-width:1.0;"/></g><!--link DeeperPlugin to State--><g id="link_DeeperPlugin_State"><path codeLine="50" d="M450.24,328.99 C437.1,357.87 423.0239,388.7883 410.6039,416.0983 " fill="none" id="DeeperPlugin-to-State" style="stroke:#181818;stroke-width:1.0;"/><polygon fill="#181818" points="408.12,421.56,415.487,415.0233,410.1899,417.0086,408.2047,411.7115,408.12,421.56" style="stroke:#181818;stroke-width:1.0;"/></g><!--SRC=[nLCzJyCm4DtpAqwP6cXQiKQeKgN2ND42GzN194TYuTYHxO0GzB-Js94Tfo2nrKCSttk-ZtVdXkHlf4I8DuWDoXY-8kYM-UICA0LxIN8SpFswVYAinGoKbfINthp_R3ghOVU_7jWPuYm9hfmYio5lQtzd5EMk9fIvqxOIt7lSY0xaxlYeK79IUtpNlXGXvRaILBdJSWdheW2XAvIWJNcwYww0AE281HRZ52dNA5zxafLeozgIyh4W3rXIrP7w4b5A8JrqBnWJ7wR0cOaqA9GC- -7uFvriArnX5yp1I7cH-DFgq_Hx5VGaSgt-as4eTgBJT0NnJJoPs36sM5p5lrmVUg693fx5EjVq7IrHPL2JvjQvdWTk3iVLkN0MiW9Ddj8S6WDcWPTah8rFs-HbRC6uUkWK_G00]--></g></svg>