<svg xmlns="http://www.w3.org/2000/svg" xmlns:xlink="http://www.w3.org/1999/xlink" contentStyleType="text/css" data-diagram-type="CLASS" height="965px" preserveAspectRatio="none" style="width:2560px;height:965px;background:#FFFFFF;" version="1.1" viewBox="0 0 2560 965" width="2560px" zoomAndPan="magnify"><?plantuml 1.2026.6?><defs/><g><!--cluster entities--><g class="cluster" data-qualified-name="entities" data-source-line="2" id="ent0001"><path d="M2377.5,22.49 L2432.4697,22.49 A3.75,3.75 0 0 1 2434.9697,24.99 L2441.9697,44.9783 L2542.5,44.9783 A2.5,2.5 0 0 1 2545,47.4783 L2545,442.36 A2.5,2.5 0 0 1 2542.5,444.86 L2377.5,444.86 A2.5,2.5 0 0 1 2375,442.36 L2375,24.99 A2.5,2.5 0 0 1 2377.5,22.49" fill="none" style="stroke:#000000;stroke-width:1.5;"/><line style="stroke:#000000;stroke-width:1.5;" x1="2375" x2="2441.9697" y1="44.9783" y2="44.9783"/><text fill="#000000" font-family="sans-serif" font-size="14" font-weight="700" lengthAdjust="spacing" textLength="53.9697" x="2379" y="38.0252">entities</text></g><!--cluster plugins--><g class="cluster" data-qualified-name="plugins" data-source-line="23" id="ent0005"><path d="M8.5,510.35 L63.4219,510.35 A3.75,3.75 0 0 1 65.9219,512.85 L72.9219,532.8383 L1235.5,532.8383 A2.5,2.5 0 0 1 1238,535.3383 L1238,799.8 A2.5,2.5 0 0 1 1235.5,802.3 L8.5,802.3 A2.5,2.5 0 0 1 6,799.8 L6,512.85 A2.5,2.5 0 0 1 8.5,510.35" fill="none" style="stroke:#000000;stroke-width:1.5;"/><line style="stroke:#000000;stroke-width:1.5;" x1="6" x2="72.9219" y1="532.8383" y2="532.8383"/><text fill="#000000" font-family="sans-serif" font-size="14" font-weight="700" lengthAdjust="spacing" textLength="53.9219" x="10" y="525.8852">plugins</text></g><!--cluster state--><g class="cluster" data-qualified-name="state" data-source-line="60" id="ent0023"><path d="M1264.5,493.86 L1301.1973,493.86 A3.75,3.75 0 0 1 1303.6973,496.36 L1310.6973,516.3483 L1647.5,516.3483 A2.5,2.5 0 0 1 1650,518.8483 L1650,623.34 A2.5,2.5 0 0 1 1647.5,625.84 L1264.5,625.84 A2.5,2.5 0 0 1 1262,623.34 L1262,496.36 A2.5,2.5 0 0 1 1264.5,493.86" fill="none" style="stroke:#000000;stroke-width:1.5;"/><line style="stroke:#000000;stroke-width:1.5;" x1="1262" x2="1310.6973" y1="516.3483" y2="516.3483"/><text fill="#000000" font-family="sans-serif" font-size="14" font-weight="700" lengthAdjust="spacing" textLength="35.6973" x="1266" y="509.3952">state</text></g><!--cluster engine--><g class="cluster" data-qualified-name="engine" data-source-line="67" id="ent0025"><path d="M2101.5,6 L2151.083,6 A3.75,3.75 0 0 1 2153.583,8.5 L2160.583,28.4883 L2348.5,28.4883 A2.5,2.5 0 0 1 2351,30.9883 L2351,168.45 A2.5,2.5 0 0 1 2348.5,170.95 L2101.5,170.95 A2.5,2.5 0 0 1 2099,168.45 L2099,8.5 A2.5,2.5 0 0 1 2101.5,6" fill="none" style="stroke:#000000;stroke-width:1.5;"/><line style="stroke:#000000;stroke-width:1.5;" x1="2099" x2="2160.583" y1="28.4883" y2="28.4883"/><text fill="#000000" font-family="sans-serif" font-size="14" font-weight="700" lengthAdjust="spacing" textLength="48.583" x="2103" y="21.5352">engine</text></g><!--cluster processor--><g class="cluster" data-qualified-name="processor" data-source-line="76" id="ent0027"><path d="M1451.5,271.66 L1523.874,271.66 A3.75,3.75 0 0 1 1526.374,274.16 L1533.374,294.1483 L1766.5,294.1483 A2.5,2.5 0 0 1 1769,296.6483 L1769,384.65 A2.5,2.5 0 0 1 1766.5,387.15 L1451.5,387.15 A2.5,2.5 0 0 1 1449,384.65 L1449,274.16 A2.5,2.5 0 0 1 1451.5,271.66" fill="none" style="stroke:#000000;stroke-width:1.5;"/><line style="stroke:#000000;stroke-width:1.5;" x1="1449" x2="1533.374" y1="294.1483" y2="294.1483"/><text fill="#000000" font-family="sans-serif" font-size="14" font-weight="700" lengthAdjust="spacing" textLength="71.374" x="1453" y="287.1952">processor</text></g><!--cluster workerpool--><g class="cluster" data-qualified-name="workerpool" data-source-line="82" id="ent0029"><path d="M1676.5,502.1 L1760.0234,502.1 A3.75,3.75 0 0 1 1762.5234,504.6 L1769.5234,524.5883 L2229.5,524.5883 A2.5,2.5 0 0 1 2232,527.0883 L2232,775.07 A2.5,2.5 0 0 1 2229.5,777.57 L1676.5,777.57 A2.5,2.5 0 0 1 1674,775.07 L1674,504.6 A2.5,2.5 0 0 1 1676.5,502.1" fill="none" style="stroke:#000000;stroke-width:1.5;"/><line style="stroke:#000000;stroke-width:1.5;" x1="1674" x2="1769.5234" y1="524.5883" y2="524.5883"/><text fill="#000000" font-family="sans-serif" font-size="14" font-weight="700" lengthAdjust="spacing" textLength="82.5234" x="1678" y="517.6352">workerpool</text></g><!--cluster database--><g class="cluster" data-qualified-name="database" data-source-line="95" id="ent0037"><path d="M2032.5,851.3 L2098.5371,851.3 A3.75,3.75 0 0 1 2101.0371,853.8 L2108.0371,873.7883 L2272.5,873.7883 A2.5,2.5 0 0 1 2275,876.2883 L2275,947.8 A2.5,2.5 0 0 1 2272.5,950.3 L2032.5,950.3 A2.5,2.5 0 0 1 2030,947.8 L2030,853.8 A2.5,2.5 0 0 1 2032.5,851.3" fill="none" style="stroke:#000000;stroke-width:1.5;"/><line style="stroke:#000000;stroke-width:1.5;" x1="2030" x2="2108.0371" y1="873.7883" y2="873.7883"/><text fill="#000000" font-family="sans-serif" font-size="14" font-weight="700" lengthAdjust="spacing" textLength="65.0371" x="2034" y="866.8352">database</text></g><!--class Trace--><g class="entity" data-qualified-name="entities.Trace" data-source-line="3" id="ent0002"><rect fill="#F1F1F1" height="80.9766" rx="2.5" ry="2.5" style="stroke:#181818;stroke-width:0.5;" width="137.6992" x="2391.15" y="57.49"/><ellipse cx="2437.108" cy="73.49" fill="#ADD1B2" rx="11" ry="11" style="stroke:#181818;stroke-width:1;"/><path d="M2439.5812,79.6331 Q2439.0001,79.9319 2438.3609,80.0813 Q2437.7218,80.2307 2437.0162,80.2307 Q2434.5094,80.2307 2433.1896,78.5789 Q2431.8697,76.927 2431.8697,73.8059 Q2431.8697,70.6765 2433.1896,69.0247 Q2434.5094,67.3728 2437.0162,67.3728 Q2437.7218,67.3728 2438.3692,67.5222 Q2439.0167,67.6716 2439.5812,67.9705 L2439.5812,70.6931 Q2438.9503,70.1121 2438.3568,69.8423 Q2437.7633,69.5725 2437.1324,69.5725 Q2435.7877,69.5725 2435.1029,70.6392 Q2434.4181,71.7058 2434.4181,73.8059 Q2434.4181,75.8977 2435.1029,76.9644 Q2435.7877,78.031 2437.1324,78.031 Q2437.7633,78.031 2438.3568,77.7612 Q2438.9503,77.4915 2439.5812,76.9104 Z " fill="#000000"/><text fill="#000000" font-family="sans-serif" font-size="14" lengthAdjust="spacing" textLength="37.2832" x="2457.608" y="78.781">Trace</text><line style="stroke:#181818;stroke-width:0.5;" x1="2392.15" x2="2527.8492" y1="89.49" y2="89.49"/><g data-visibility-modifier="PUBLIC_FIELD"><ellipse cx="2402.15" cy="103.2341" fill="none" rx="3" ry="3" style="stroke:#038048;stroke-width:1;"/></g><text fill="#000000" font-family="sans-serif" font-size="14" lengthAdjust="spacing" textLength="85.8457" x="2411.15" y="107.0252">Value: string</text><g data-visibility-modifier="PUBLIC_FIELD"><ellipse cx="2402.15" cy="119.7224" fill="none" rx="3" ry="3" style="stroke:#038048;stroke-width:1;"/></g><text fill="#000000" font-family="sans-serif" font-size="14" lengthAdjust="spacing" textLength="111.6992" x="2411.15" y="123.5134">Type: TraceType</text><line style="stroke:#181818;stroke-width:0.5;" x1="2392.15" x2="2527.8492" y1="130.4666" y2="130.4666"/></g><!--class TraceType--><g class="entity" data-qualified-name="entities.TraceType" data-source-line="8" id="ent0003"><rect fill="#F1F1F1" height="179.9063" rx="2.5" ry="2.5" style="stroke:#181818;stroke-width:0.5;" width="102.4873" x="2408.76" y="248.95"/><ellipse cx="2423.9516" cy="264.95" fill="#EB937F" rx="11" ry="11" style="stroke:#181818;stroke-width:1;"/><path d="M2427.5659,271.45 L2419.8461,271.45 L2419.8461,259.0569 L2427.5659,259.0569 L2427.5659,261.2151 L2422.2949,261.2151 L2422.2949,263.888 L2427.0678,263.888 L2427.0678,266.0462 L2422.2949,266.0462 L2422.2949,269.2918 L2427.5659,269.2918 Z " fill="#000000"/><text fill="#000000" font-family="sans-serif" font-size="14" lengthAdjust="spacing" textLength="70.0615" x="2437.9942" y="270.241">TraceType</text><line style="stroke:#181818;stroke-width:0.5;" x1="2409.76" x2="2510.2473" y1="280.95" y2="280.95"/><text fill="#000000" font-family="sans-serif" font-size="14" lengthAdjust="spacing" textLength="52.623" x="2414.76" y="298.4852">Domain</text><text fill="#000000" font-family="sans-serif" font-size="14" lengthAdjust="spacing" textLength="75.9883" x="2414.76" y="314.9734">Subdomain</text><text fill="#000000" font-family="sans-serif" font-size="14" lengthAdjust="spacing" textLength="67.6553" x="2414.76" y="331.4617">Username</text><text fill="#000000" font-family="sans-serif" font-size="14" lengthAdjust="spacing" textLength="36.4834" x="2414.76" y="347.95">Email</text><text fill="#000000" font-family="sans-serif" font-size="14" lengthAdjust="spacing" textLength="63.9023" x="2414.76" y="364.4383">Company</text><text fill="#000000" font-family="sans-serif" font-size="14" lengthAdjust="spacing" textLength="45.5889" x="2414.76" y="380.9266">Github</text><text fill="#000000" font-family="sans-serif" font-size="14" lengthAdjust="spacing" textLength="72.126" x="2414.76" y="397.4148">Repository</text><text fill="#000000" font-family="sans-serif" font-size="14" lengthAdjust="spacing" textLength="90.4873" x="2414.76" y="413.9031">SocialGeneric</text><line style="stroke:#181818;stroke-width:0.5;" x1="2409.76" x2="2510.2473" y1="420.8562" y2="420.8562"/></g><!--class DeeperPlugin--><g class="entity" data-qualified-name="plugins.DeeperPlugin" data-source-line="24" id="ent0006"><rect fill="#F1F1F1" height="97.4648" rx="2.5" ry="2.5" style="stroke:#181818;stroke-width:0.5;" width="302.582" x="21.71" y="688.84"/><ellipse cx="123.5689" cy="704.84" fill="#B4A7E5" rx="11" ry="11" style="stroke:#181818;stroke-width:1;"/><path d="M119.9966,701.1051 L119.9966,698.9469 L127.376,698.9469 L127.376,701.1051 L124.9107,701.1051 L124.9107,709.1818 L127.376,709.1818 L127.376,711.34 L119.9966,711.34 L119.9966,709.1818 L122.462,709.1818 L122.462,701.1051 Z " fill="#000000"/><text fill="#000000" font-family="sans-serif" font-size="14" font-style="italic" lengthAdjust="spacing" textLength="90.3643" x="144.0689" y="710.131">DeeperPlugin</text><line style="stroke:#181818;stroke-width:0.5;" x1="22.71" x2="323.292" y1="720.84" y2="720.84"/><line style="stroke:#181818;stroke-width:0.5;" x1="22.71" x2="323.292" y1="728.84" y2="728.84"/><g data-visibility-modifier="PUBLIC_METHOD"><ellipse cx="32.71" cy="742.5841" fill="#84BE84" rx="3" ry="3" style="stroke:#038048;stroke-width:1;"/></g><text fill="#000000" font-family="sans-serif" font-size="14" lengthAdjust="spacing" textLength="106.8799" x="41.71" y="746.3752">Register(): error</text><g data-visibility-modifier="PUBLIC_METHOD"><ellipse cx="32.71" cy="759.0724" fill="#84BE84" rx="3" ry="3" style="stroke:#038048;stroke-width:1;"/></g><text fill="#000000" font-family="sans-serif" font-size="14" lengthAdjust="spacing" textLength="276.582" x="41.71" y="762.8634">FollowTrace(trace: Trace): (Trace[], error)</text><g data-visibility-modifier="PUBLIC_METHOD"><ellipse cx="32.71" cy="775.5607" fill="#84BE84" rx="3" ry="3" style="stroke:#038048;stroke-width:1;"/></g><text fill="#000000" font-family="sans-serif" font-size="14" lengthAdjust="spacing" textLength="97.501" x="41.71" y="779.3517">String(): string</text></g><!--class TraceMatcher--><g class="entity" data-qualified-name="plugins.TraceMatcher" data-source-line="30" id="ent0007"><rect fill="#F1F1F1" height="64.4883" rx="2.5" ry="2.5" style="stroke:#181818;stroke-width:0.5;" width="209.6543" x="701.17" y="705.32"/><ellipse cx="755.8985" cy="721.32" fill="#B4A7E5" rx="11" ry="11" style="stroke:#181818;stroke-width:1;"/><path d="M752.3263,717.5851 L752.3263,715.4269 L759.7056,715.4269 L759.7056,717.5851 L757.2403,717.5851 L757.2403,725.6618 L759.7056,725.6618 L759.7056,727.82 L752.3263,727.82 L752.3263,725.6618 L754.7916,725.6618 L754.7916,717.5851 Z " fill="#000000"/><text fill="#000000" font-family="sans-serif" font-size="14" font-style="italic" lengthAdjust="spacing" textLength="91.6973" x="776.3985" y="726.611">TraceMatcher</text><line style="stroke:#181818;stroke-width:0.5;" x1="702.17" x2="909.8243" y1="737.32" y2="737.32"/><line style="stroke:#181818;stroke-width:0.5;" x1="702.17" x2="909.8243" y1="745.32" y2="745.32"/><g data-visibility-modifier="PUBLIC_METHOD"><ellipse cx="712.17" cy="759.0641" fill="#84BE84" rx="3" ry="3" style="stroke:#038048;stroke-width:1;"/></g><text fill="#000000" font-family="sans-serif" font-size="14" lengthAdjust="spacing" textLength="183.6543" x="721.17" y="762.8552">Matches(trace: Trace): bool</text></g><g class="entity" data-qualified-name="plugins.GMN8" data-source-line="35" id="ent0009"><path d="M946.28,694.29 L946.28,733.57 L911.06,737.57 L946.28,741.57 L946.28,780.8427 A0,0 0 0 0 946.28,780.8427 L1221.7131,780.8427 A0,0 0 0 0 1221.7131,780.8427 L1221.7131,704.29 L1211.7131,694.29 L946.28,694.29 A0,0 0 0 0 946.28,694.29" fill="#FEFFDD" style="stroke:#181818;stroke-width:0.5;"/><path d="M1211.7131,694.29 L1211.7131,704.29 L1221.7131,704.29 L1211.7131,694.29" fill="#FEFFDD" style="stroke:#181818;stroke-width:0.5;"/><text fill="#000000" font-family="sans-serif" font-size="13" lengthAdjust="spacing" textLength="241.8013" x="952.28" y="711.8584">Optional. Lets a plugin declare, before</text><text fill="#000000" font-family="sans-serif" font-size="13" lengthAdjust="spacing" textLength="254.4331" x="952.28" y="727.1689">any task is created, whether it would act</text><text fill="#000000" font-family="sans-serif" font-size="13" lengthAdjust="spacing" textLength="246.251" x="952.28" y="742.4795">on a trace -- so Processor can skip the</text><text fill="#000000" font-family="sans-serif" font-size="13" lengthAdjust="spacing" textLength="215.103" x="952.28" y="757.79">domain rate-limit wait entirely for</text><text fill="#000000" font-family="sans-serif" font-size="13" lengthAdjust="spacing" textLength="126.0454" x="952.28" y="773.1005">guaranteed no-ops.</text></g><!--class WhoisPlugin--><g class="entity" data-qualified-name="plugins.WhoisPlugin" data-source-line="42" id="ent0011"><rect fill="#F1F1F1" height="48" rx="2.5" ry="2.5" style="stroke:#181818;stroke-width:0.5;" width="114.3867" x="21.81" y="545.35"/><ellipse cx="36.81" cy="561.35" fill="#ADD1B2" rx="11" ry="11" style="stroke:#181818;stroke-width:1;"/><path d="M39.2831,567.4931 Q38.7021,567.7919 38.0629,567.9413 Q37.4238,568.0907 36.7182,568.0907 Q34.2114,568.0907 32.8915,566.4389 Q31.5717,564.787 31.5717,561.6659 Q31.5717,558.5365 32.8915,556.8847 Q34.2114,555.2328 36.7182,555.2328 Q37.4238,555.2328 38.0712,555.3822 Q38.7187,555.5316 39.2831,555.8305 L39.2831,558.5531 Q38.6523,557.9721 38.0588,557.7023 Q37.4653,557.4325 36.8344,557.4325 Q35.4897,557.4325 34.8049,558.4992 Q34.1201,559.5658 34.1201,561.6659 Q34.1201,563.7577 34.8049,564.8244 Q35.4897,565.891 36.8344,565.891 Q37.4653,565.891 38.0588,565.6212 Q38.6523,565.3515 39.2831,564.7704 Z " fill="#000000"/><text fill="#000000" font-family="sans-serif" font-size="14" lengthAdjust="spacing" textLength="82.3867" x="50.81" y="566.641">WhoisPlugin</text><line style="stroke:#181818;stroke-width:0.5;" x1="22.81" x2="135.1967" y1="577.35" y2="577.35"/><line style="stroke:#181818;stroke-width:0.5;" x1="22.81" x2="135.1967" y1="585.35" y2="585.35"/></g><!--class SubdomainPlugin--><g class="entity" data-qualified-name="plugins.SubdomainPlugin" data-source-line="43" id="ent0012"><rect fill="#F1F1F1" height="48" rx="2.5" ry="2.5" style="stroke:#181818;stroke-width:0.5;" width="149.9268" x="171.04" y="545.35"/><ellipse cx="186.04" cy="561.35" fill="#ADD1B2" rx="11" ry="11" style="stroke:#181818;stroke-width:1;"/><path d="M188.5131,567.4931 Q187.9321,567.7919 187.2929,567.9413 Q186.6538,568.0907 185.9482,568.0907 Q183.4414,568.0907 182.1215,566.4389 Q180.8017,564.787 180.8017,561.6659 Q180.8017,558.5365 182.1215,556.8847 Q183.4414,555.2328 185.9482,555.2328 Q186.6538,555.2328 187.3012,555.3822 Q187.9487,555.5316 188.5131,555.8305 L188.5131,558.5531 Q187.8823,557.9721 187.2888,557.7023 Q186.6953,557.4325 186.0644,557.4325 Q184.7197,557.4325 184.0349,558.4992 Q183.3501,559.5658 183.3501,561.6659 Q183.3501,563.7577 184.0349,564.8244 Q184.7197,565.891 186.0644,565.891 Q186.6953,565.891 187.2888,565.6212 Q187.8823,565.3515 188.5131,564.7704 Z " fill="#000000"/><text fill="#000000" font-family="sans-serif" font-size="14" lengthAdjust="spacing" textLength="117.9268" x="200.04" y="566.641">SubdomainPlugin</text><line style="stroke:#181818;stroke-width:0.5;" x1="172.04" x2="319.9668" y1="577.35" y2="577.35"/><line style="stroke:#181818;stroke-width:0.5;" x1="172.04" x2="319.9668" y1="585.35" y2="585.35"/></g><!--class GitHubIdentityPlugin--><g class="entity" data-qualified-name="plugins.GitHubIdentityPlugin" data-source-line="44" id="ent0013"><rect fill="#F1F1F1" height="48" rx="2.5" ry="2.5" style="stroke:#181818;stroke-width:0.5;" width="172.2939" x="355.85" y="545.35"/><ellipse cx="370.85" cy="561.35" fill="#ADD1B2" rx="11" ry="11" style="stroke:#181818;stroke-width:1;"/><path d="M373.3231,567.4931 Q372.7421,567.7919 372.1029,567.9413 Q371.4638,568.0907 370.7582,568.0907 Q368.2514,568.0907 366.9315,566.4389 Q365.6117,564.787 365.6117,561.6659 Q365.6117,558.5365 366.9315,556.8847 Q368.2514,555.2328 370.7582,555.2328 Q371.4638,555.2328 372.1112,555.3822 Q372.7587,555.5316 373.3231,555.8305 L373.3231,558.5531 Q372.6923,557.9721 372.0988,557.7023 Q371.5053,557.4325 370.8744,557.4325 Q369.5297,557.4325 368.8449,558.4992 Q368.1601,559.5658 368.1601,561.6659 Q368.1601,563.7577 368.8449,564.8244 Q369.5297,565.891 370.8744,565.891 Q371.5053,565.891 372.0988,565.6212 Q372.6923,565.3515 373.3231,564.7704 Z " fill="#000000"/><text fill="#000000" font-family="sans-serif" font-size="14" lengthAdjust="spacing" textLength="140.2939" x="384.85" y="566.641">GitHubIdentityPlugin</text><line style="stroke:#181818;stroke-width:0.5;" x1="356.85" x2="527.1439" y1="577.35" y2="577.35"/><line style="stroke:#181818;stroke-width:0.5;" x1="356.85" x2="527.1439" y1="585.35" y2="585.35"/></g><!--class KeybaseProfilePlugin--><g class="entity" data-qualified-name="plugins.KeybaseProfilePlugin" data-source-line="45" id="ent0014"><rect fill="#F1F1F1" height="48" rx="2.5" ry="2.5" style="stroke:#181818;stroke-width:0.5;" width="172.7793" x="563.61" y="545.35"/><ellipse cx="578.61" cy="561.35" fill="#ADD1B2" rx="11" ry="11" style="stroke:#181818;stroke-width:1;"/><path d="M581.0831,567.4931 Q580.5021,567.7919 579.8629,567.9413 Q579.2238,568.0907 578.5182,568.0907 Q576.0114,568.0907 574.6915,566.4389 Q573.3717,564.787 573.3717,561.6659 Q573.3717,558.5365 574.6915,556.8847 Q576.0114,555.2328 578.5182,555.2328 Q579.2238,555.2328 579.8712,555.3822 Q580.5187,555.5316 581.0831,555.8305 L581.0831,558.5531 Q580.4523,557.9721 579.8588,557.7023 Q579.2653,557.4325 578.6344,557.4325 Q577.2897,557.4325 576.6049,558.4992 Q575.9201,559.5658 575.9201,561.6659 Q575.9201,563.7577 576.6049,564.8244 Q577.2897,565.891 578.6344,565.891 Q579.2653,565.891 579.8588,565.6212 Q580.4523,565.3515 581.0831,564.7704 Z " fill="#000000"/><text fill="#000000" font-family="sans-serif" font-size="14" lengthAdjust="spacing" textLength="140.7793" x="592.61" y="566.641">KeybaseProfilePlugin</text><line style="stroke:#181818;stroke-width:0.5;" x1="564.61" x2="735.3893" y1="577.35" y2="577.35"/><line style="stroke:#181818;stroke-width:0.5;" x1="564.61" x2="735.3893" y1="585.35" y2="585.35"/></g><g class="entity" data-qualified-name="plugins.GMN15" data-source-line="48" id="ent0016"><path d="M359.67,709.6 L359.67,765.5316 A0,0 0 0 0 359.67,765.5316 L666.3209,765.5316 A0,0 0 0 0 666.3209,765.5316 L666.3209,719.6 L656.3209,709.6 L539.42,709.6 L630.66,593.81 L531.42,709.6 L359.67,709.6 A0,0 0 0 0 359.67,709.6" fill="#FEFFDD" style="stroke:#181818;stroke-width:0.5;"/><path d="M656.3209,709.6 L656.3209,719.6 L666.3209,719.6 L656.3209,709.6" fill="#FEFFDD" style="stroke:#181818;stroke-width:0.5;"/><text fill="#000000" font-family="sans-serif" font-size="13" lengthAdjust="spacing" textLength="227.8428" x="365.67" y="727.1684">1 of 25 plugins. Registers under the</text><text fill="#000000" font-family="sans-serif" font-size="13" lengthAdjust="spacing" textLength="259.5303" x="365.67" y="742.4789">broad SocialGeneric type but implements</text><text fill="#000000" font-family="sans-serif" font-size="13" lengthAdjust="spacing" textLength="285.6509" x="365.67" y="757.7895">TraceMatcher to only act on keybase.io URLs.</text></g><!--class ActivePluginsRegistry--><g class="entity" data-qualified-name="state.ActivePluginsRegistry" data-source-line="61" id="ent0024"><rect fill="#F1F1F1" height="80.9766" rx="2.5" ry="2.5" style="stroke:#181818;stroke-width:0.5;" width="355.3555" x="1278.32" y="528.86"/><ellipse cx="1379.2082" cy="544.86" fill="#ADD1B2" rx="11" ry="11" style="stroke:#181818;stroke-width:1;"/><path d="M1381.6813,551.0031 Q1381.1003,551.3019 1380.4611,551.4513 Q1379.822,551.6007 1379.1164,551.6007 Q1376.6096,551.6007 1375.2897,549.9489 Q1373.9699,548.297 1373.9699,545.1759 Q1373.9699,542.0465 1375.2897,540.3947 Q1376.6096,538.7428 1379.1164,538.7428 Q1379.822,538.7428 1380.4694,538.8922 Q1381.1169,539.0416 1381.6813,539.3405 L1381.6813,542.0631 Q1381.0505,541.4821 1380.457,541.2123 Q1379.8635,540.9425 1379.2326,540.9425 Q1377.8879,540.9425 1377.2031,542.0092 Q1376.5182,543.0758 1376.5182,545.1759 Q1376.5182,547.2677 1377.2031,548.3344 Q1377.8879,549.401 1379.2326,549.401 Q1379.8635,549.401 1380.457,549.1312 Q1381.0505,548.8615 1381.6813,548.2804 Z " fill="#000000"/><text fill="#000000" font-family="sans-serif" font-size="14" lengthAdjust="spacing" textLength="145.0791" x="1399.7082" y="550.151">ActivePluginsRegistry</text><line style="stroke:#181818;stroke-width:0.5;" x1="1279.32" x2="1632.6755" y1="560.86" y2="560.86"/><g data-visibility-modifier="PUBLIC_FIELD"><ellipse cx="1289.32" cy="574.6041" fill="none" rx="3" ry="3" style="stroke:#038048;stroke-width:1;"/></g><text fill="#000000" font-family="sans-serif" font-size="14" lengthAdjust="spacing" textLength="329.3555" x="1298.32" y="578.3952">ActivePlugins: map&lt;TraceType, DeeperPlugin[]&gt;</text><line style="stroke:#181818;stroke-width:0.5;" x1="1279.32" x2="1632.6755" y1="585.3483" y2="585.3483"/><g data-visibility-modifier="PUBLIC_METHOD"><ellipse cx="1289.32" cy="599.0924" fill="#84BE84" rx="3" ry="3" style="stroke:#038048;stroke-width:1;"/></g><text fill="#000000" font-family="sans-serif" font-size="14" lengthAdjust="spacing" textLength="224.6904" x="1298.32" y="602.8834">RegisterPlugin(traceType, plugin)</text></g><!--class Engine--><g class="entity" data-qualified-name="engine.Engine" data-source-line="68" id="ent0026"><rect fill="#F1F1F1" height="113.9531" rx="2.5" ry="2.5" style="stroke:#181818;stroke-width:0.5;" width="220.4209" x="2114.79" y="41"/><ellipse cx="2197.9799" cy="57" fill="#ADD1B2" rx="11" ry="11" style="stroke:#181818;stroke-width:1;"/><path d="M2200.4531,63.1431 Q2199.872,63.4419 2199.2329,63.5913 Q2198.5937,63.7407 2197.8881,63.7407 Q2195.3813,63.7407 2194.0615,62.0889 Q2192.7417,60.437 2192.7417,57.3159 Q2192.7417,54.1865 2194.0615,52.5347 Q2195.3813,50.8828 2197.8881,50.8828 Q2198.5937,50.8828 2199.2412,51.0322 Q2199.8886,51.1816 2200.4531,51.4805 L2200.4531,54.2031 Q2199.8222,53.6221 2199.2287,53.3523 Q2198.6352,53.0825 2198.0044,53.0825 Q2196.6596,53.0825 2195.9748,54.1492 Q2195.29,55.2158 2195.29,57.3159 Q2195.29,59.4077 2195.9748,60.4744 Q2196.6596,61.541 2198.0044,61.541 Q2198.6352,61.541 2199.2287,61.2712 Q2199.8222,61.0015 2200.4531,60.4204 Z " fill="#000000"/><text fill="#000000" font-family="sans-serif" font-size="14" lengthAdjust="spacing" textLength="45.541" x="2218.4799" y="62.291">Engine</text><line style="stroke:#181818;stroke-width:0.5;" x1="2115.79" x2="2334.2109" y1="73" y2="73"/><g data-visibility-modifier="PRIVATE_FIELD"><rect fill="none" height="6" style="stroke:#C82930;stroke-width:1;" width="6" x="2122.79" y="83.7441"/></g><text fill="#000000" font-family="sans-serif" font-size="14" lengthAdjust="spacing" textLength="90.7061" x="2134.79" y="90.5352">stack: Trace[]</text><g data-visibility-modifier="PRIVATE_FIELD"><rect fill="none" height="6" style="stroke:#C82930;stroke-width:1;" width="6" x="2122.79" y="100.2324"/></g><text fill="#000000" font-family="sans-serif" font-size="14" lengthAdjust="spacing" textLength="119.998" x="2134.79" y="107.0234">seen: set&lt;Trace&gt;</text><line style="stroke:#181818;stroke-width:0.5;" x1="2115.79" x2="2334.2109" y1="113.9766" y2="113.9766"/><g data-visibility-modifier="PUBLIC_METHOD"><ellipse cx="2125.79" cy="127.7207" fill="#84BE84" rx="3" ry="3" style="stroke:#038048;stroke-width:1;"/></g><text fill="#000000" font-family="sans-serif" font-size="14" lengthAdjust="spacing" textLength="173.5645" x="2134.79" y="131.5117">ProcessInput(seed: Trace)</text><g data-visibility-modifier="PRIVATE_METHOD"><rect fill="#F24D5C" height="6" style="stroke:#C82930;stroke-width:1;" width="6" x="2122.79" y="141.209"/></g><text fill="#000000" font-family="sans-serif" font-size="14" lengthAdjust="spacing" textLength="194.4209" x="2134.79" y="148">processBatch(traces: Trace[])</text></g><!--class Processor--><g class="entity" data-qualified-name="processor.Processor" data-source-line="77" id="ent0028"><rect fill="#F1F1F1" height="64.4883" rx="2.5" ry="2.5" style="stroke:#181818;stroke-width:0.5;" width="287.0029" x="1465.5" y="306.66"/><ellipse cx="1571.9321" cy="322.66" fill="#ADD1B2" rx="11" ry="11" style="stroke:#181818;stroke-width:1;"/><path d="M1574.4053,328.8031 Q1573.8242,329.1019 1573.1851,329.2513 Q1572.5459,329.4007 1571.8403,329.4007 Q1569.3335,329.4007 1568.0137,327.7489 Q1566.6938,326.097 1566.6938,322.9759 Q1566.6938,319.8465 1568.0137,318.1947 Q1569.3335,316.5428 1571.8403,316.5428 Q1572.5459,316.5428 1573.1934,316.6922 Q1573.8408,316.8416 1574.4053,317.1405 L1574.4053,319.8631 Q1573.7744,319.2821 1573.1809,319.0123 Q1572.5874,318.7425 1571.9565,318.7425 Q1570.6118,318.7425 1569.927,319.8092 Q1569.2422,320.8758 1569.2422,322.9759 Q1569.2422,325.0677 1569.927,326.1344 Q1570.6118,327.201 1571.9565,327.201 Q1572.5874,327.201 1573.1809,326.9312 Q1573.7744,326.6615 1574.4053,326.0804 Z " fill="#000000"/><text fill="#000000" font-family="sans-serif" font-size="14" lengthAdjust="spacing" textLength="65.6387" x="1592.4321" y="327.951">Processor</text><line style="stroke:#181818;stroke-width:0.5;" x1="1466.5" x2="1751.5029" y1="338.66" y2="338.66"/><line style="stroke:#181818;stroke-width:0.5;" x1="1466.5" x2="1751.5029" y1="346.66" y2="346.66"/><g data-visibility-modifier="PUBLIC_METHOD"><ellipse cx="1476.5" cy="360.4041" fill="#84BE84" rx="3" ry="3" style="stroke:#038048;stroke-width:1;"/></g><text fill="#000000" font-family="sans-serif" font-size="14" lengthAdjust="spacing" textLength="261.0029" x="1485.5" y="364.1952">ProcessTrace(trace: Trace): Discovery[]</text></g><!--class WorkerPool--><g class="entity" data-qualified-name="workerpool.WorkerPool" data-source-line="83" id="ent0030"><rect fill="#F1F1F1" height="64.4883" rx="2.5" ry="2.5" style="stroke:#181818;stroke-width:0.5;" width="193.9932" x="1690" y="537.1"/><ellipse cx="1744.2466" cy="553.1" fill="#ADD1B2" rx="11" ry="11" style="stroke:#181818;stroke-width:1;"/><path d="M1746.7197,559.2431 Q1746.1387,559.5419 1745.4995,559.6913 Q1744.8604,559.8407 1744.1548,559.8407 Q1741.6479,559.8407 1740.3281,558.1889 Q1739.0083,556.537 1739.0083,553.4159 Q1739.0083,550.2865 1740.3281,548.6347 Q1741.6479,546.9828 1744.1548,546.9828 Q1744.8604,546.9828 1745.5078,547.1322 Q1746.1553,547.2816 1746.7197,547.5805 L1746.7197,550.3031 Q1746.0889,549.7221 1745.4954,549.4523 Q1744.9019,549.1825 1744.271,549.1825 Q1742.9263,549.1825 1742.2415,550.2492 Q1741.5566,551.3158 1741.5566,553.4159 Q1741.5566,555.5077 1742.2415,556.5744 Q1742.9263,557.641 1744.271,557.641 Q1744.9019,557.641 1745.4954,557.3712 Q1746.0889,557.1015 1746.7197,556.5204 Z " fill="#000000"/><text fill="#000000" font-family="sans-serif" font-size="14" lengthAdjust="spacing" textLength="77" x="1764.7466" y="558.391">WorkerPool</text><line style="stroke:#181818;stroke-width:0.5;" x1="1691" x2="1882.9932" y1="569.1" y2="569.1"/><line style="stroke:#181818;stroke-width:0.5;" x1="1691" x2="1882.9932" y1="577.1" y2="577.1"/><g data-visibility-modifier="PUBLIC_METHOD"><ellipse cx="1701" cy="590.8441" fill="#84BE84" rx="3" ry="3" style="stroke:#038048;stroke-width:1;"/></g><text fill="#000000" font-family="sans-serif" font-size="14" lengthAdjust="spacing" textLength="167.9932" x="1710" y="594.6352">Submit(task: Task): error</text></g><!--class DomainRateLimiter--><g class="entity" data-qualified-name="workerpool.DomainRateLimiter" data-source-line="86" id="ent0031"><rect fill="#F1F1F1" height="48" rx="2.5" ry="2.5" style="stroke:#181818;stroke-width:0.5;" width="161.6367" x="1690.18" y="713.57"/><ellipse cx="1705.18" cy="729.57" fill="#ADD1B2" rx="11" ry="11" style="stroke:#181818;stroke-width:1;"/><path d="M1707.6531,735.7131 Q1707.0721,736.0119 1706.4329,736.1613 Q1705.7938,736.3107 1705.0882,736.3107 Q1702.5814,736.3107 1701.2615,734.6589 Q1699.9417,733.007 1699.9417,729.8859 Q1699.9417,726.7565 1701.2615,725.1047 Q1702.5814,723.4528 1705.0882,723.4528 Q1705.7938,723.4528 1706.4412,723.6022 Q1707.0887,723.7516 1707.6531,724.0505 L1707.6531,726.7731 Q1707.0223,726.1921 1706.4288,725.9223 Q1705.8353,725.6525 1705.2044,725.6525 Q1703.8597,725.6525 1703.1749,726.7192 Q1702.4901,727.7858 1702.4901,729.8859 Q1702.4901,731.9777 1703.1749,733.0444 Q1703.8597,734.111 1705.2044,734.111 Q1705.8353,734.111 1706.4288,733.8412 Q1707.0223,733.5715 1707.6531,732.9904 Z " fill="#000000"/><text fill="#000000" font-family="sans-serif" font-size="14" lengthAdjust="spacing" textLength="129.6367" x="1719.18" y="734.861">DomainRateLimiter</text><line style="stroke:#181818;stroke-width:0.5;" x1="1691.18" x2="1850.8167" y1="745.57" y2="745.57"/><line style="stroke:#181818;stroke-width:0.5;" x1="1691.18" x2="1850.8167" y1="753.57" y2="753.57"/></g><!--class DeduplicationCache--><g class="entity" data-qualified-name="workerpool.DeduplicationCache" data-source-line="87" id="ent0032"><rect fill="#F1F1F1" height="48" rx="2.5" ry="2.5" style="stroke:#181818;stroke-width:0.5;" width="167.2422" x="1886.38" y="713.57"/><ellipse cx="1901.38" cy="729.57" fill="#ADD1B2" rx="11" ry="11" style="stroke:#181818;stroke-width:1;"/><path d="M1903.8531,735.7131 Q1903.2721,736.0119 1902.6329,736.1613 Q1901.9938,736.3107 1901.2882,736.3107 Q1898.7814,736.3107 1897.4615,734.6589 Q1896.1417,733.007 1896.1417,729.8859 Q1896.1417,726.7565 1897.4615,725.1047 Q1898.7814,723.4528 1901.2882,723.4528 Q1901.9938,723.4528 1902.6412,723.6022 Q1903.2887,723.7516 1903.8531,724.0505 L1903.8531,726.7731 Q1903.2223,726.1921 1902.6288,725.9223 Q1902.0353,725.6525 1901.4044,725.6525 Q1900.0597,725.6525 1899.3749,726.7192 Q1898.6901,727.7858 1898.6901,729.8859 Q1898.6901,731.9777 1899.3749,733.0444 Q1900.0597,734.111 1901.4044,734.111 Q1902.0353,734.111 1902.6288,733.8412 Q1903.2223,733.5715 1903.8531,732.9904 Z " fill="#000000"/><text fill="#000000" font-family="sans-serif" font-size="14" lengthAdjust="spacing" textLength="135.2422" x="1915.38" y="734.861">DeduplicationCache</text><line style="stroke:#181818;stroke-width:0.5;" x1="1887.38" x2="2052.6222" y1="745.57" y2="745.57"/><line style="stroke:#181818;stroke-width:0.5;" x1="1887.38" x2="2052.6222" y1="753.57" y2="753.57"/></g><!--class CircuitBreaker--><g class="entity" data-qualified-name="workerpool.CircuitBreaker" data-source-line="88" id="ent0033"><rect fill="#F1F1F1" height="48" rx="2.5" ry="2.5" style="stroke:#181818;stroke-width:0.5;" width="127.6279" x="2088.19" y="713.57"/><ellipse cx="2103.19" cy="729.57" fill="#ADD1B2" rx="11" ry="11" style="stroke:#181818;stroke-width:1;"/><path d="M2105.6631,735.7131 Q2105.0821,736.0119 2104.4429,736.1613 Q2103.8038,736.3107 2103.0982,736.3107 Q2100.5914,736.3107 2099.2715,734.6589 Q2097.9517,733.007 2097.9517,729.8859 Q2097.9517,726.7565 2099.2715,725.1047 Q2100.5914,723.4528 2103.0982,723.4528 Q2103.8038,723.4528 2104.4512,723.6022 Q2105.0987,723.7516 2105.6631,724.0505 L2105.6631,726.7731 Q2105.0323,726.1921 2104.4388,725.9223 Q2103.8453,725.6525 2103.2144,725.6525 Q2101.8697,725.6525 2101.1849,726.7192 Q2100.5001,727.7858 2100.5001,729.8859 Q2100.5001,731.9777 2101.1849,733.0444 Q2101.8697,734.111 2103.2144,734.111 Q2103.8453,734.111 2104.4388,733.8412 Q2105.0323,733.5715 2105.6631,732.9904 Z " fill="#000000"/><text fill="#000000" font-family="sans-serif" font-size="14" lengthAdjust="spacing" textLength="95.6279" x="2117.19" y="734.861">CircuitBreaker</text><line style="stroke:#181818;stroke-width:0.5;" x1="2089.19" x2="2214.8179" y1="745.57" y2="745.57"/><line style="stroke:#181818;stroke-width:0.5;" x1="2089.19" x2="2214.8179" y1="753.57" y2="753.57"/></g><!--class Repository--><g class="entity" data-qualified-name="database.Repository" data-source-line="96" id="ent0038"><rect fill="#F1F1F1" height="48" rx="2.5" ry="2.5" style="stroke:#181818;stroke-width:0.5;" width="104.126" x="2154.94" y="886.3"/><ellipse cx="2169.94" cy="902.3" fill="#ADD1B2" rx="11" ry="11" style="stroke:#181818;stroke-width:1;"/><path d="M2172.4131,908.4431 Q2171.8321,908.7419 2171.1929,908.8913 Q2170.5538,909.0407 2169.8482,909.0407 Q2167.3414,909.0407 2166.0215,907.3889 Q2164.7017,905.737 2164.7017,902.6159 Q2164.7017,899.4865 2166.0215,897.8347 Q2167.3414,896.1828 2169.8482,896.1828 Q2170.5538,896.1828 2171.2012,896.3322 Q2171.8487,896.4816 2172.4131,896.7805 L2172.4131,899.5031 Q2171.7823,898.9221 2171.1888,898.6523 Q2170.5953,898.3825 2169.9644,898.3825 Q2168.6197,898.3825 2167.9349,899.4492 Q2167.2501,900.5158 2167.2501,902.6159 Q2167.2501,904.7077 2167.9349,905.7744 Q2168.6197,906.841 2169.9644,906.841 Q2170.5953,906.841 2171.1888,906.5712 Q2171.7823,906.3015 2172.4131,905.7204 Z " fill="#000000"/><text fill="#000000" font-family="sans-serif" font-size="14" lengthAdjust="spacing" textLength="72.126" x="2183.94" y="907.591">Repository</text><line style="stroke:#181818;stroke-width:0.5;" x1="2155.94" x2="2258.066" y1="918.3" y2="918.3"/><line style="stroke:#181818;stroke-width:0.5;" x1="2155.94" x2="2258.066" y1="926.3" y2="926.3"/></g><!--class Cache--><g class="entity" data-qualified-name="database.Cache" data-source-line="97" id="ent0039"><rect fill="#F1F1F1" height="48" rx="2.5" ry="2.5" style="stroke:#181818;stroke-width:0.5;" width="73.0771" x="2046.46" y="886.3"/><ellipse cx="2061.46" cy="902.3" fill="#ADD1B2" rx="11" ry="11" style="stroke:#181818;stroke-width:1;"/><path d="M2063.9331,908.4431 Q2063.3521,908.7419 2062.7129,908.8913 Q2062.0738,909.0407 2061.3682,909.0407 Q2058.8614,909.0407 2057.5415,907.3889 Q2056.2217,905.737 2056.2217,902.6159 Q2056.2217,899.4865 2057.5415,897.8347 Q2058.8614,896.1828 2061.3682,896.1828 Q2062.0738,896.1828 2062.7212,896.3322 Q2063.3687,896.4816 2063.9331,896.7805 L2063.9331,899.5031 Q2063.3023,898.9221 2062.7088,898.6523 Q2062.1153,898.3825 2061.4844,898.3825 Q2060.1397,898.3825 2059.4549,899.4492 Q2058.7701,900.5158 2058.7701,902.6159 Q2058.7701,904.7077 2059.4549,905.7744 Q2060.1397,906.841 2061.4844,906.841 Q2062.1153,906.841 2062.7088,906.5712 Q2063.3023,906.3015 2063.9331,905.7204 Z " fill="#000000"/><text fill="#000000" font-family="sans-serif" font-size="14" lengthAdjust="spacing" textLength="41.0771" x="2075.46" y="907.591">Cache</text><line style="stroke:#181818;stroke-width:0.5;" x1="2047.46" x2="2118.5371" y1="918.3" y2="918.3"/><line style="stroke:#181818;stroke-width:0.5;" x1="2047.46" x2="2118.5371" y1="926.3" y2="926.3"/></g><!--link Trace to TraceType--><g class="link" data-entity-1="ent0002" data-entity-2="ent0003" data-link-type="dependency" data-source-line="20" id="lnk4"><path codeLine="20" d="M2460,138.7 C2460,168.62 2460,205.83 2460,243.69" fill="none" id="Trace-to-TraceType" style="stroke:#181818;stroke-width:1;"/><polygon fill="#181818" points="2460,248.69,2464,239.69,2460,243.69,2456,239.69,2460,248.69" style="stroke:#181818;stroke-width:1;stroke-linejoin:miter;stroke-miterlimit:10;"/><text fill="#000000" font-family="sans-serif" font-size="13" lengthAdjust="spacing" textLength="8.2202" x="2451.6776" y="238.1793">1</text></g><!--link WhoisPlugin to DeeperPlugin--><g class="link" data-entity-1="ent0011" data-entity-2="ent0006" data-link-type="extension" data-source-line="53" id="lnk18"><path codeLine="53" d="M92.27,593.81 C106.14,618.33 119.4206,641.8212 137.0106,672.9312" fill="none" id="WhoisPlugin-to-DeeperPlugin" style="stroke:#181818;stroke-width:1;stroke-dasharray:7,7;"/><polygon fill="none" points="145.87,688.6,142.2336,669.9781,131.7877,675.8843,145.87,688.6" style="stroke:#181818;stroke-width:1;stroke-linejoin:miter;stroke-miterlimit:10;"/></g><!--link SubdomainPlugin to DeeperPlugin--><g class="link" data-entity-1="ent0012" data-entity-2="ent0006" data-link-type="extension" data-source-line="54" id="lnk19"><path codeLine="54" d="M235.7,593.81 C224.93,618.33 214.9667,641.0088 201.3067,672.1188" fill="none" id="SubdomainPlugin-to-DeeperPlugin" style="stroke:#181818;stroke-width:1;stroke-dasharray:7,7;"/><polygon fill="none" points="194.07,688.6,206.8004,674.531,195.813,669.7066,194.07,688.6" style="stroke:#181818;stroke-width:1;stroke-linejoin:miter;stroke-miterlimit:10;"/></g><!--link GitHubIdentityPlugin to DeeperPlugin--><g class="link" data-entity-1="ent0013" data-entity-2="ent0006" data-link-type="extension" data-source-line="55" id="lnk20"><path codeLine="55" d="M404.03,593.81 C364.42,618.29 316.5127,647.8884 266.2127,678.9684" fill="none" id="GitHubIdentityPlugin-to-DeeperPlugin" style="stroke:#181818;stroke-width:1;stroke-dasharray:7,7;"/><polygon fill="none" points="250.9,688.43,269.3665,684.0726,263.0588,673.8642,250.9,688.43" style="stroke:#181818;stroke-width:1;stroke-linejoin:miter;stroke-miterlimit:10;"/></g><!--link KeybaseProfilePlugin to DeeperPlugin--><g class="link" data-entity-1="ent0014" data-entity-2="ent0006" data-link-type="extension" data-source-line="56" id="lnk21"><path codeLine="56" d="M617.12,593.77 C597.29,607.03 571.07,623.07 546,633.84 C459.72,670.9 432.52,663.85 342,688.84 C336.27,690.42 347.7725,687.2094 341.8725,688.8494" fill="none" id="KeybaseProfilePlugin-to-DeeperPlugin" style="stroke:#181818;stroke-width:1;stroke-dasharray:7,7;"/><polygon fill="none" points="324.53,693.67,343.4794,694.6302,340.2656,683.0686,324.53,693.67" style="stroke:#181818;stroke-width:1;stroke-linejoin:miter;stroke-miterlimit:10;"/></g><!--link KeybaseProfilePlugin to TraceMatcher--><g class="link" data-entity-1="ent0014" data-entity-2="ent0007" data-link-type="extension" data-source-line="57" id="lnk22"><path codeLine="57" d="M672.02,593.81 C699.32,622.89 733.6214,659.4555 764.0414,691.8655" fill="none" id="KeybaseProfilePlugin-to-TraceMatcher" style="stroke:#181818;stroke-width:1;stroke-dasharray:7,7;"/><polygon fill="none" points="776.36,704.99,768.4162,687.7593,759.6666,695.9717,776.36,704.99" style="stroke:#181818;stroke-width:1;stroke-linejoin:miter;stroke-miterlimit:10;"/></g><!--link WorkerPool to DomainRateLimiter--><g class="link" data-entity-1="ent0030" data-entity-2="ent0031" data-link-type="dependency" data-source-line="90" id="lnk34"><path codeLine="90" d="M1783.95,602 C1780.83,634.41 1776.5394,679.033 1773.7394,708.103" fill="none" id="WorkerPool-to-DomainRateLimiter" style="stroke:#181818;stroke-width:1;"/><polygon fill="#181818" points="1773.26,713.08,1778.1045,704.505,1773.7394,708.103,1770.1413,703.738,1773.26,713.08" style="stroke:#181818;stroke-width:1;stroke-linejoin:miter;stroke-miterlimit:10;"/></g><!--link WorkerPool to DeduplicationCache--><g class="link" data-entity-1="ent0030" data-entity-2="ent0032" data-link-type="dependency" data-source-line="91" id="lnk35"><path codeLine="91" d="M1821.85,602 C1857.53,634.41 1908.4391,680.648 1940.4391,709.718" fill="none" id="WorkerPool-to-DeduplicationCache" style="stroke:#181818;stroke-width:1;"/><polygon fill="#181818" points="1944.14,713.08,1940.168,704.0676,1940.4391,709.718,1934.7887,709.9891,1944.14,713.08" style="stroke:#181818;stroke-width:1;stroke-linejoin:miter;stroke-miterlimit:10;"/></g><!--link WorkerPool to CircuitBreaker--><g class="link" data-entity-1="ent0030" data-entity-2="ent0033" data-link-type="dependency" data-source-line="92" id="lnk36"><path codeLine="92" d="M1871.3,602 C1928.53,624.34 2005.42,656.03 2071,688.84 C2085.6,696.14 2096.8614,702.4494 2110.3914,710.5594" fill="none" id="WorkerPool-to-CircuitBreaker" style="stroke:#181818;stroke-width:1;"/><polygon fill="#181818" points="2114.68,713.13,2109.017,705.072,2110.3914,710.5594,2104.9041,711.9338,2114.68,713.13" style="stroke:#181818;stroke-width:1;stroke-linejoin:miter;stroke-miterlimit:10;"/></g><!--link Engine to Processor--><g class="link" data-entity-1="ent0026" data-entity-2="ent0028" data-link-type="dependency" data-source-line="100" id="lnk40"><path codeLine="100" d="M2114.52,141.83 C1992.64,189.1 1804.0716,262.2418 1695.2016,304.4718" fill="none" id="Engine-to-Processor" style="stroke:#181818;stroke-width:1;"/><polygon fill="#181818" points="1690.54,306.28,1700.3774,306.7545,1695.2016,304.4718,1697.4843,299.296,1690.54,306.28" style="stroke:#181818;stroke-width:1;stroke-linejoin:miter;stroke-miterlimit:10;"/><text fill="#000000" font-family="sans-serif" font-size="13" lengthAdjust="spacing" textLength="91.3428" x="2042.1633" y="200.5184">processBatch()</text><text fill="#000000" font-family="sans-serif" font-size="13" lengthAdjust="spacing" textLength="193.0894" x="1991.29" y="215.8289">(bounded by MaxConcurrency)</text></g><!--link Processor to ActivePluginsRegistry--><g class="link" data-entity-1="ent0028" data-entity-2="ent0024" data-link-type="dependency" data-source-line="101" id="lnk41"><path codeLine="101" d="M1577.63,371.28 C1555.45,394.61 1526.04,427.96 1505,460.86 C1491.46,482.02 1481.5695,502.929 1472.9495,523.789" fill="none" id="Processor-to-ActivePluginsRegistry" style="stroke:#181818;stroke-width:1;"/><polygon fill="#181818" points="1471.04,528.41,1478.174,521.6198,1472.9495,523.789,1470.7804,518.5646,1471.04,528.41" style="stroke:#181818;stroke-width:1;stroke-linejoin:miter;stroke-miterlimit:10;"/><text fill="#000000" font-family="sans-serif" font-size="13" lengthAdjust="spacing" textLength="186.3799" x="1506" y="474.4284">lookup plugins for trace.Type</text></g><!--link Processor to TraceMatcher--><g class="link" data-entity-1="ent0028" data-entity-2="ent0007" data-link-type="dependency" data-source-line="102" id="lnk42"><path codeLine="102" d="M1465.29,351.23 C1340.52,366.53 1159.02,402.33 1023,485.86 C930.78,542.49 859.5791,646.8786 826.8791,700.6186" fill="none" id="Processor-to-TraceMatcher" style="stroke:#181818;stroke-width:1;stroke-dasharray:7,7;"/><polygon fill="#181818" points="824.28,704.89,832.3755,699.2808,826.8791,700.6186,825.5412,695.1222,824.28,704.89" style="stroke:#181818;stroke-width:1;stroke-linejoin:miter;stroke-miterlimit:10;"/><text fill="#000000" font-family="sans-serif" font-size="13" lengthAdjust="spacing" textLength="237.6499" x="1024" y="574.4184">skip submission if Matches() == false</text></g><!--link Processor to WorkerPool--><g class="link" data-entity-1="ent0028" data-entity-2="ent0030" data-link-type="dependency" data-source-line="103" id="lnk43"><path codeLine="103" d="M1633.38,371.19 C1667.27,414.69 1725.2264,489.0763 1759.2764,532.7663" fill="none" id="Processor-to-WorkerPool" style="stroke:#181818;stroke-width:1;"/><polygon fill="#181818" points="1762.35,536.71,1759.9726,527.1524,1759.2764,532.7663,1753.6626,532.0701,1762.35,536.71" style="stroke:#181818;stroke-width:1;stroke-linejoin:miter;stroke-miterlimit:10;"/><text fill="#000000" font-family="sans-serif" font-size="13" lengthAdjust="spacing" textLength="242.1123" x="1714.94" y="474.4284">Submit() one task per matching plugin</text></g><!--link WorkerPool to DeeperPlugin--><g class="link" data-entity-1="ent0030" data-entity-2="ent0006" data-link-type="dependency" data-source-line="104" id="lnk44"><path codeLine="104" d="M1731.82,601.94 C1707.52,614.24 1678.15,627.01 1650,633.84 C1367.28,702.42 629.27,642.87 342,688.84 C336.28,689.75 335.3858,689.824 329.5458,690.974" fill="none" id="WorkerPool-to-DeeperPlugin" style="stroke:#181818;stroke-width:1;"/><polygon fill="#181818" points="324.64,691.94,334.2433,694.1258,329.5458,690.974,332.6976,686.2765,324.64,691.94" style="stroke:#181818;stroke-width:1;stroke-linejoin:miter;stroke-miterlimit:10;"/><text fill="#000000" font-family="sans-serif" font-size="13" lengthAdjust="spacing" textLength="83.5479" x="1595.39" y="655.4084">FollowTrace()</text></g><!--link Engine to Repository--><g class="link" data-entity-1="ent0026" data-entity-2="ent0038" data-link-type="dependency" data-source-line="105" id="lnk45"><path codeLine="105" d="M2246.6,155.01 C2263.09,202.85 2283,273.88 2283,337.91 C2283,337.91 2283,337.91 2283,738.57 C2283,783.09 2275.49,794.8 2257,835.3 C2248.76,853.35 2239.2504,867.8428 2228.8104,881.8328" fill="none" id="Engine-to-Repository" style="stroke:#181818;stroke-width:1;"/><polygon fill="#181818" points="2225.82,885.84,2234.4084,881.0193,2228.8104,881.8328,2227.9969,876.2347,2225.82,885.84" style="stroke:#181818;stroke-width:1;stroke-linejoin:miter;stroke-miterlimit:10;"/><text fill="#000000" font-family="sans-serif" font-size="13" lengthAdjust="spacing" textLength="160.4751" x="2284" y="574.4184">persist trace graph edges</text></g><!--link DeduplicationCache to Cache--><g class="link" data-entity-1="ent0032" data-entity-2="ent0039" data-link-type="dependency" data-source-line="106" id="lnk46"><path codeLine="106" d="M1985.48,761.95 C2007.05,794.55 2043.201,849.1601 2064.771,881.7601" fill="none" id="DeduplicationCache-to-Cache" style="stroke:#181818;stroke-width:1;"/><polygon fill="#181818" points="2067.53,885.93,2065.8997,876.217,2064.771,881.7601,2059.2279,880.6315,2067.53,885.93" style="stroke:#181818;stroke-width:1;stroke-linejoin:miter;stroke-miterlimit:10;"/><text fill="#000000" font-family="sans-serif" font-size="13" lengthAdjust="spacing" textLength="214.1636" x="2034.27" y="831.8684">cross-run dedup markers (SQLite)</text></g><?plantuml-src bLPRRzis57xthpZ8oomi5jO1suEn1bYJhYkMObdIhWzP7YZgs2PCamH9DHEwxhVly6A9ihK1yuCjdHi_VkTcm_YURH4kK7dX1ReB-Bm0-d39d8Ftbd7Cal3v-dScEro3yrQexIX-tnkIHklm61LV5l47LNSODKMi6trWGWsl3rtJJYKV75h53ZW8NfDQ3c_N-c2OweVtDyBlkcPulKUZdV3QZXOFcWictw12A_WW_Gh-_luRyDep2JxUrnDGLzuXqR1QNS75YulYcgGsHmADxBP23Vm9vT5kWjiDea5x5zKbbVUu5OwCbjKQq5fjHzLFMahz7CzPHaYPMx9SneV7fylaKurE3p4d8LgHdNo14KrqVySytw4jqIIHEpskqLgMWPJs25PiTnxqPX9i2FMhyK8h9ckuHU-0GM86MgIQidW93Mwq7RDAEGJFt1w40swHUMmluNc7FY0K7fvr9rjWt0yUMb5KdtC2JiETrHoTqnOuK-3smW1v3_Qfhi1Iw9KKXn2JqLSeUOkoXqt1_RPZbX5RsD9TLzguEbTn6---A9hZuquBb_9QI8SwFjDGWVxSDM_Rs6hzcVeNx1lcaEwo4HApUYIzqTxhGs1zrl28_qMm-FQxJBghuLXc3ZhL4gCbCOtLh9ssHIn-Q3eFuc0a7WYi6-mdnUCr9OBOeyo4ZEmJgbfe-71_EqjRGHZKzLzNazPOJ8R0VrhD4ValfdDS_M_JIPcNFUyybTHqOlx8lVYKlLtYtlPbeqqCrd1WveTXe5nEK3q-NPrFYwHARPfSKgQhtAKbF5IaEC7tEieAG2kw1D_dZdzyAkI8YcO9-eIlm9BRxQqodL-IMNkS5wEpIIQl0ca9h1kEc8DgZXqyHJiszkUpusV7uurmN7z2s-URJ4zvrdQFrj1CcnxpCShlI5wUGyL8is8PPXCTGD-JGVsby4-hx9wAuJQCbpmCimxRpaZ1MPYArupdzalAQs5v9_mh6di487V922PidFdOfqRpXvnOdPnMCjCopqBrJtavsQ4PSmnFphcKGkGnJskOfBxwGoqR7IPF2qqFxzYVrrhnpbfKlAyMer-8CjyxQv1Qxpjp76bXNAVfNySbFCQewsclaclS1IuaqZcY1iG6ZfkkWfSlOSEamnCO1Mjho4LGqOZ3jAQeFwbhAGRjs8nfSPQEOkMleLpdLKdRo6_WZMOqtJWljgrbPWVORkcVo7bsKphZqvgMfdPkPRkmOicGm0Km3fOFlzrImLIBVm00?></g></svg>
