<svg xmlns="http://www.w3.org/2000/svg" xmlns:xlink="http://www.w3.org/1999/xlink" contentStyleType="text/css" data-diagram-type="DESCRIPTION" height="779px" preserveAspectRatio="none" style="width:874px;height:779px;background:#FFFFFF;" version="1.1" viewBox="0 0 874 779" width="874px" zoomAndPan="magnify"><?plantuml 1.2026.6?><defs/><g><!--cluster Deeper--><g class="cluster" data-qualified-name="Deeper" data-source-line="2" id="ent0001"><path d="M8.5,6 L60.8516,6 A3.75,3.75 0 0 1 63.3516,8.5 L70.3516,28.4883 L802.5,28.4883 A2.5,2.5 0 0 1 805,30.9883 L805,761.92 A2.5,2.5 0 0 1 802.5,764.42 L8.5,764.42 A2.5,2.5 0 0 1 6,761.92 L6,8.5 A2.5,2.5 0 0 1 8.5,6" fill="none" style="stroke:#000000;stroke-width:1.5;"/><line style="stroke:#000000;stroke-width:1.5;" x1="6" x2="70.3516" y1="28.4883" y2="28.4883"/><text fill="#000000" font-family="sans-serif" font-size="14" font-weight="700" lengthAdjust="spacing" textLength="51.3516" x="10" y="21.5352">Deeper</text></g><!--entity CLI (cobra)--><g class="entity" data-qualified-name="Deeper.CLI .cobra." data-source-line="3" id="ent0002"><rect fill="#F1F1F1" height="46.4883" rx="2.5" ry="2.5" style="stroke:#181818;stroke-width:0.5;" width="112.7617" x="564.62" y="41"/><rect fill="#F1F1F1" height="10" style="stroke:#181818;stroke-width:0.5;" width="15" x="657.3817" y="46"/><rect fill="#F1F1F1" height="2" style="stroke:#181818;stroke-width:0.5;" width="4" x="655.3817" y="48"/><rect fill="#F1F1F1" height="2" style="stroke:#181818;stroke-width:0.5;" width="4" x="655.3817" y="52"/><text fill="#000000" font-family="sans-serif" font-size="14" lengthAdjust="spacing" textLength="72.7617" x="579.62" y="74.5352">CLI (cobra)</text></g><!--entity Engine--><g class="entity" data-qualified-name="Deeper.Engine" data-source-line="3" id="ent0003"><rect fill="#F1F1F1" height="46.4883" rx="2.5" ry="2.5" style="stroke:#181818;stroke-width:0.5;" width="85.541" x="516.23" y="148.49"/><rect fill="#F1F1F1" height="10" style="stroke:#181818;stroke-width:0.5;" width="15" x="581.771" y="153.49"/><rect fill="#F1F1F1" height="2" style="stroke:#181818;stroke-width:0.5;" width="4" x="579.771" y="155.49"/><rect fill="#F1F1F1" height="2" style="stroke:#181818;stroke-width:0.5;" width="4" x="579.771" y="159.49"/><text fill="#000000" font-family="sans-serif" font-size="14" lengthAdjust="spacing" textLength="45.541" x="531.23" y="182.0252">Engine</text></g><!--entity Display--><g class="entity" data-qualified-name="Deeper.Display" data-source-line="4" id="ent0005"><rect fill="#F1F1F1" height="46.4883" rx="2.5" ry="2.5" style="stroke:#181818;stroke-width:0.5;" width="89.5742" x="637.21" y="148.49"/><rect fill="#F1F1F1" height="10" style="stroke:#181818;stroke-width:0.5;" width="15" x="706.7842" y="153.49"/><rect fill="#F1F1F1" height="2" style="stroke:#181818;stroke-width:0.5;" width="4" x="704.7842" y="155.49"/><rect fill="#F1F1F1" height="2" style="stroke:#181818;stroke-width:0.5;" width="4" x="704.7842" y="159.49"/><text fill="#000000" font-family="sans-serif" font-size="14" lengthAdjust="spacing" textLength="49.5742" x="652.21" y="182.0252">Display</text></g><!--entity Processor--><g class="entity" data-qualified-name="Deeper.Processor" data-source-line="6" id="ent0007"><rect fill="#F1F1F1" height="46.4883" rx="2.5" ry="2.5" style="stroke:#181818;stroke-width:0.5;" width="105.6387" x="321.18" y="255.98"/><rect fill="#F1F1F1" height="10" style="stroke:#181818;stroke-width:0.5;" width="15" x="406.8187" y="260.98"/><rect fill="#F1F1F1" height="2" style="stroke:#181818;stroke-width:0.5;" width="4" x="404.8187" y="262.98"/><rect fill="#F1F1F1" height="2" style="stroke:#181818;stroke-width:0.5;" width="4" x="404.8187" y="266.98"/><text fill="#000000" font-family="sans-serif" font-size="14" lengthAdjust="spacing" textLength="65.6387" x="336.18" y="289.5152">Processor</text></g><!--entity Database (SQLite)--><g class="entity" data-qualified-name="Deeper.Database .SQLite." data-source-line="7" id="ent0009"><rect fill="#F1F1F1" height="46.4883" rx="2.5" ry="2.5" style="stroke:#181818;stroke-width:0.5;" width="159.1641" x="606.42" y="594.44"/><rect fill="#F1F1F1" height="10" style="stroke:#181818;stroke-width:0.5;" width="15" x="745.5841" y="599.44"/><rect fill="#F1F1F1" height="2" style="stroke:#181818;stroke-width:0.5;" width="4" x="743.5841" y="601.44"/><rect fill="#F1F1F1" height="2" style="stroke:#181818;stroke-width:0.5;" width="4" x="743.5841" y="605.44"/><text fill="#000000" font-family="sans-serif" font-size="14" lengthAdjust="spacing" textLength="119.1641" x="621.42" y="627.9752">Database (SQLite)</text></g><!--entity Plugin Registry--><g class="entity" data-qualified-name="Deeper.Plugin Registry" data-source-line="9" id="ent0011"><rect fill="#F1F1F1" height="46.4883" rx="2.5" ry="2.5" style="stroke:#181818;stroke-width:0.5;" width="141.2129" x="39.39" y="594.44"/><rect fill="#F1F1F1" height="10" style="stroke:#181818;stroke-width:0.5;" width="15" x="160.6029" y="599.44"/><rect fill="#F1F1F1" height="2" style="stroke:#181818;stroke-width:0.5;" width="4" x="158.6029" y="601.44"/><rect fill="#F1F1F1" height="2" style="stroke:#181818;stroke-width:0.5;" width="4" x="158.6029" y="605.44"/><text fill="#000000" font-family="sans-serif" font-size="14" lengthAdjust="spacing" textLength="101.2129" x="54.39" y="627.9752">Plugin Registry</text></g><!--entity Worker Pool--><g class="entity" data-qualified-name="Deeper.Worker Pool" data-source-line="10" id="ent0013"><rect fill="#F1F1F1" height="46.4883" rx="2.5" ry="2.5" style="stroke:#181818;stroke-width:0.5;" width="121.4297" x="313.29" y="363.47"/><rect fill="#F1F1F1" height="10" style="stroke:#181818;stroke-width:0.5;" width="15" x="414.7197" y="368.47"/><rect fill="#F1F1F1" height="2" style="stroke:#181818;stroke-width:0.5;" width="4" x="412.7197" y="370.47"/><rect fill="#F1F1F1" height="2" style="stroke:#181818;stroke-width:0.5;" width="4" x="412.7197" y="374.47"/><text fill="#000000" font-family="sans-serif" font-size="14" lengthAdjust="spacing" textLength="81.4297" x="328.29" y="397.0052">Worker Pool</text></g><!--entity Domain Rate Limiter--><g class="entity" data-qualified-name="Deeper.Domain Rate Limiter" data-source-line="12" id="ent0015"><rect fill="#F1F1F1" height="46.4883" rx="2.5" ry="2.5" style="stroke:#181818;stroke-width:0.5;" width="178.4961" x="58.75" y="470.96"/><rect fill="#F1F1F1" height="10" style="stroke:#181818;stroke-width:0.5;" width="15" x="217.2461" y="475.96"/><rect fill="#F1F1F1" height="2" style="stroke:#181818;stroke-width:0.5;" width="4" x="215.2461" y="477.96"/><rect fill="#F1F1F1" height="2" style="stroke:#181818;stroke-width:0.5;" width="4" x="215.2461" y="481.96"/><text fill="#000000" font-family="sans-serif" font-size="14" lengthAdjust="spacing" textLength="138.4961" x="73.75" y="504.4952">Domain Rate Limiter</text></g><!--entity Deduplication Cache--><g class="entity" data-qualified-name="Deeper.Deduplication Cache" data-source-line="13" id="ent0017"><rect fill="#F1F1F1" height="46.4883" rx="2.5" ry="2.5" style="stroke:#181818;stroke-width:0.5;" width="179.6719" x="572.16" y="470.96"/><rect fill="#F1F1F1" height="10" style="stroke:#181818;stroke-width:0.5;" width="15" x="731.8319" y="475.96"/><rect fill="#F1F1F1" height="2" style="stroke:#181818;stroke-width:0.5;" width="4" x="729.8319" y="477.96"/><rect fill="#F1F1F1" height="2" style="stroke:#181818;stroke-width:0.5;" width="4" x="729.8319" y="481.96"/><text fill="#000000" font-family="sans-serif" font-size="14" lengthAdjust="spacing" textLength="139.6719" x="587.16" y="504.4952">Deduplication Cache</text></g><!--entity Circuit Breaker--><g class="entity" data-qualified-name="Deeper.Circuit Breaker" data-source-line="14" id="ent0019"><rect fill="#F1F1F1" height="46.4883" rx="2.5" ry="2.5" style="stroke:#181818;stroke-width:0.5;" width="140.0576" x="396.97" y="470.96"/><rect fill="#F1F1F1" height="10" style="stroke:#181818;stroke-width:0.5;" width="15" x="517.0276" y="475.96"/><rect fill="#F1F1F1" height="2" style="stroke:#181818;stroke-width:0.5;" width="4" x="515.0276" y="477.96"/><rect fill="#F1F1F1" height="2" style="stroke:#181818;stroke-width:0.5;" width="4" x="515.0276" y="481.96"/><text fill="#000000" font-family="sans-serif" font-size="14" lengthAdjust="spacing" textLength="100.0576" x="411.97" y="504.4952">Circuit Breaker</text></g><!--entity Plugins--><g class="entity" data-qualified-name="Deeper.Plugins" data-source-line="15" id="ent0021"><rect fill="#F1F1F1" height="46.4883" rx="2.5" ry="2.5" style="stroke:#181818;stroke-width:0.5;" width="89.0752" x="272.46" y="470.96"/><rect fill="#F1F1F1" height="10" style="stroke:#181818;stroke-width:0.5;" width="15" x="341.5352" y="475.96"/><rect fill="#F1F1F1" height="2" style="stroke:#181818;stroke-width:0.5;" width="4" x="339.5352" y="477.96"/><rect fill="#F1F1F1" height="2" style="stroke:#181818;stroke-width:0.5;" width="4" x="339.5352" y="481.96"/><text fill="#000000" font-family="sans-serif" font-size="14" lengthAdjust="spacing" textLength="49.0752" x="287.46" y="504.4952">Plugins</text></g><!--entity Shared HTTP Client--><g class="entity" data-qualified-name="Deeper.Shared HTTP Client" data-source-line="20" id="ent0025"><rect fill="#F1F1F1" height="46.4883" rx="2.5" ry="2.5" style="stroke:#181818;stroke-width:0.5;" width="170.3955" x="231.8" y="594.44"/><rect fill="#F1F1F1" height="10" style="stroke:#181818;stroke-width:0.5;" width="15" x="382.1955" y="599.44"/><rect fill="#F1F1F1" height="2" style="stroke:#181818;stroke-width:0.5;" width="4" x="380.1955" y="601.44"/><rect fill="#F1F1F1" height="2" style="stroke:#181818;stroke-width:0.5;" width="4" x="380.1955" y="605.44"/><text fill="#000000" font-family="sans-serif" font-size="14" lengthAdjust="spacing" textLength="130.3955" x="246.8" y="627.9752">Shared HTTP Client</text></g><!--entity External Services--><g class="entity" data-qualified-name="Deeper.External Services" data-source-line="21" id="ent0027"><rect fill="#F1F1F1" height="46.4883" rx="2.5" ry="2.5" style="stroke:#181818;stroke-width:0.5;" width="154.3037" x="239.85" y="701.93"/><rect fill="#F1F1F1" height="10" style="stroke:#181818;stroke-width:0.5;" width="15" x="374.1537" y="706.93"/><rect fill="#F1F1F1" height="2" style="stroke:#181818;stroke-width:0.5;" width="4" x="372.1537" y="708.93"/><rect fill="#F1F1F1" height="2" style="stroke:#181818;stroke-width:0.5;" width="4" x="372.1537" y="712.93"/><text fill="#000000" font-family="sans-serif" font-size="14" lengthAdjust="spacing" textLength="114.3037" x="254.85" y="735.4652">External Services</text></g><!--link CLI (cobra) to Engine--><g class="link" data-entity-1="ent0002" data-entity-2="ent0003" data-link-type="dependency" data-source-line="3" id="lnk4"><path d="M607.7,87.88 C597.24,105.67 585.2625,126.0388 574.8125,143.8288" fill="none" id="CLI (cobra)-to-Engine" style="stroke:#181818;stroke-width:1;"/><polygon fill="#181818" points="572.28,148.14,580.2874,142.4058,574.8125,143.8288,573.3894,138.3538,572.28,148.14" style="stroke:#181818;stroke-width:1;stroke-linejoin:miter;stroke-miterlimit:10;"/></g><!--link CLI (cobra) to Display--><g class="link" data-entity-1="ent0002" data-entity-2="ent0005" data-link-type="dependency" data-source-line="4" id="lnk6"><path d="M634.09,87.88 C644.38,105.67 656.1465,126.0219 666.4365,143.8119" fill="none" id="CLI (cobra)-to-Display" style="stroke:#181818;stroke-width:1;"/><polygon fill="#181818" points="668.94,148.14,667.8963,138.3466,666.4365,143.8119,660.9713,142.3521,668.94,148.14" style="stroke:#181818;stroke-width:1;stroke-linejoin:miter;stroke-miterlimit:10;"/></g><!--link Engine to Processor--><g class="link" data-entity-1="ent0003" data-entity-2="ent0007" data-link-type="dependency" data-source-line="6" id="lnk8"><path d="M519.31,195.36 C488.1,213.16 449.1635,235.3634 417.9635,253.1534" fill="none" id="Engine-to-Processor" style="stroke:#181818;stroke-width:1;"/><polygon fill="#181818" points="413.62,255.63,423.4197,254.6469,417.9635,253.1534,419.457,247.6972,413.62,255.63" style="stroke:#181818;stroke-width:1;stroke-linejoin:miter;stroke-miterlimit:10;"/></g><!--link Engine to Database (SQLite)--><g class="link" data-entity-1="ent0003" data-entity-2="ent0009" data-link-type="dependency" data-source-line="7" id="lnk10"><path d="M580.29,195.34 C623.39,242.5 720.98,356.51 769,470.96 C785.26,509.7 804.54,528.37 783,564.44 C775.55,576.92 768.2769,584.0603 755.6769,591.4903" fill="none" id="Engine-to-Database (SQLite)" style="stroke:#181818;stroke-width:1;"/><polygon fill="#181818" points="751.37,594.03,761.1543,592.904,755.6769,591.4903,757.0907,586.0129,751.37,594.03" style="stroke:#181818;stroke-width:1;stroke-linejoin:miter;stroke-miterlimit:10;"/><text fill="#000000" font-family="sans-serif" font-size="13" lengthAdjust="spacing" textLength="118.9614" x="739.75" y="391.7784">persist trace graph</text></g><!--link Processor to Plugin Registry--><g class="link" data-entity-1="ent0007" data-entity-2="ent0011" data-link-type="dependency" data-source-line="9" id="lnk12"><path d="M320.9,292.79 C243.29,314.33 101.56,366.48 41,470.96 C16.64,512.97 53.492,561.4073 82.032,590.5573" fill="none" id="Processor-to-Plugin Registry" style="stroke:#181818;stroke-width:1;"/><polygon fill="#181818" points="85.53,594.13,82.0919,584.9007,82.032,590.5573,76.3755,590.4975,85.53,594.13" style="stroke:#181818;stroke-width:1;stroke-linejoin:miter;stroke-miterlimit:10;"/></g><!--link Processor to Worker Pool--><g class="link" data-entity-1="ent0007" data-entity-2="ent0013" data-link-type="dependency" data-source-line="10" id="lnk14"><path d="M374,302.85 C374,320.65 374,340.33 374,358.12" fill="none" id="Processor-to-Worker Pool" style="stroke:#181818;stroke-width:1;"/><polygon fill="#181818" points="374,363.12,378,354.12,374,358.12,370,354.12,374,363.12" style="stroke:#181818;stroke-width:1;stroke-linejoin:miter;stroke-miterlimit:10;"/></g><!--link Worker Pool to Domain Rate Limiter--><g class="link" data-entity-1="ent0013" data-entity-2="ent0015" data-link-type="dependency" data-source-line="12" id="lnk16"><path d="M325.52,410.34 C287.39,428.14 239.0407,450.7051 200.9307,468.4951" fill="none" id="Worker Pool-to-Domain Rate Limiter" style="stroke:#181818;stroke-width:1;"/><polygon fill="#181818" points="196.4,470.61,206.2472,470.4276,200.9307,468.4951,202.8633,463.1786,196.4,470.61" style="stroke:#181818;stroke-width:1;stroke-linejoin:miter;stroke-miterlimit:10;"/></g><!--link Worker Pool to Deduplication Cache--><g class="link" data-entity-1="ent0013" data-entity-2="ent0017" data-link-type="dependency" data-source-line="13" id="lnk18"><path d="M435.08,410.08 C483.62,427.86 546.5451,450.9101 595.3251,468.7801" fill="none" id="Worker Pool-to-Deduplication Cache" style="stroke:#181818;stroke-width:1;"/><polygon fill="#181818" points="600.02,470.5,592.9452,463.6482,595.3251,468.7801,590.1933,471.1601,600.02,470.5" style="stroke:#181818;stroke-width:1;stroke-linejoin:miter;stroke-miterlimit:10;"/></g><!--link Worker Pool to Circuit Breaker--><g class="link" data-entity-1="ent0013" data-entity-2="ent0019" data-link-type="dependency" data-source-line="14" id="lnk20"><path d="M393.95,410.34 C409.64,428.14 428.0939,449.069 443.7739,466.859" fill="none" id="Worker Pool-to-Circuit Breaker" style="stroke:#181818;stroke-width:1;"/><polygon fill="#181818" points="447.08,470.61,444.1298,461.2134,443.7739,466.859,438.1283,466.5031,447.08,470.61" style="stroke:#181818;stroke-width:1;stroke-linejoin:miter;stroke-miterlimit:10;"/></g><!--link Worker Pool to Plugins--><g class="link" data-entity-1="ent0013" data-entity-2="ent0021" data-link-type="dependency" data-source-line="15" id="lnk22"><path d="M361.77,410.34 C352.15,428.14 341.1964,448.4208 331.5864,466.2108" fill="none" id="Worker Pool-to-Plugins" style="stroke:#181818;stroke-width:1;"/><polygon fill="#181818" points="329.21,470.61,337.0069,464.5926,331.5864,466.2108,329.9682,460.7904,329.21,470.61" style="stroke:#181818;stroke-width:1;stroke-linejoin:miter;stroke-miterlimit:10;"/></g><!--link Deduplication Cache to Database (SQLite)--><g class="link" data-entity-1="ent0017" data-entity-2="ent0009" data-link-type="dependency" data-source-line="17" id="lnk23"><path d="M658.46,517.63 C657,531.33 656.39,549.11 660,564.44 C662.41,574.7 664.7804,580.8472 669.5704,589.7472" fill="none" id="Deduplication Cache-to-Database (SQLite)" style="stroke:#181818;stroke-width:1;"/><polygon fill="#181818" points="671.94,594.15,671.197,584.3292,669.5704,589.7472,664.1524,588.1206,671.94,594.15" style="stroke:#181818;stroke-width:1;stroke-linejoin:miter;stroke-miterlimit:10;"/><text fill="#000000" font-family="sans-serif" font-size="13" lengthAdjust="spacing" textLength="117.73" x="661" y="561.0084">cross-run markers</text></g><!--link Plugins to Plugin Registry--><g class="link" data-entity-1="ent0021" data-entity-2="ent0011" data-link-type="dependency" data-source-line="19" id="lnk24"><path d="M272.3,511.25 C231.16,526.06 176.19,545.98 174,547.44 C155.2,559.97 141.1627,575.1812 129.3627,590.1712" fill="none" id="Plugins-to-Plugin Registry" style="stroke:#181818;stroke-width:1;stroke-dasharray:7,7;"/><polygon fill="#181818" points="126.27,594.1,134.9799,589.5024,129.3627,590.1712,128.6938,584.5541,126.27,594.1" style="stroke:#181818;stroke-width:1;stroke-linejoin:miter;stroke-miterlimit:10;"/><text fill="#000000" font-family="sans-serif" font-size="13" lengthAdjust="spacing" textLength="133.1992" x="175" y="561.0084">self-register via init()</text></g><!--link Plugins to Shared HTTP Client--><g class="link" data-entity-1="ent0021" data-entity-2="ent0025" data-link-type="dependency" data-source-line="20" id="lnk26"><path d="M317,517.77 C317,539.59 317,567.46 317,589.24" fill="none" id="Plugins-to-Shared HTTP Client" style="stroke:#181818;stroke-width:1;"/><polygon fill="#181818" points="317,594.24,321,585.24,317,589.24,313,585.24,317,594.24" style="stroke:#181818;stroke-width:1;stroke-linejoin:miter;stroke-miterlimit:10;"/></g><!--link Shared HTTP Client to External Services--><g class="link" data-entity-1="ent0025" data-entity-2="ent0027" data-link-type="dependency" data-source-line="21" id="lnk28"><path d="M317,641.32 C317,659.12 317,678.79 317,696.58" fill="none" id="Shared HTTP Client-to-External Services" style="stroke:#181818;stroke-width:1;"/><polygon fill="#181818" points="317,701.58,321,692.58,317,696.58,313,692.58,317,701.58" style="stroke:#181818;stroke-width:1;stroke-linejoin:miter;stroke-miterlimit:10;"/></g><?plantuml-src VPB1Ri8m38RlVGgBKpcK1-2mmygaJUg1hKWxe1nCy5gh8QcS50rDU_S5IBLfAkJe__UNtqvwr1qs1BCLKKyoWwyCujcMrGlaskq4vmgAuW6sJxPXI-gMl6BV6pofx6f8xgks5gV9UoTgGbnXm1rwWhn-hJXG12uXHl7i0mH1JT08zcq2_x8IsmmH1c_KHB-SrBJhtKb70cldp9ZmRoabSGSyep0GL7o8MSR04rxQ3xrXZO6TXH9rIpUz9OiUEC2Z47PtcDTH_1XmweexAzFYl2zai730CzcF2qjKM2mcrXKRFPcFGYw5cEV826mvvFD_xPURwnQ5zl2ysQoXD4msf6acXFHjFYFLee6QvCZnKLJsdVq0?></g></svg>
