<svg xmlns="http://www.w3.org/2000/svg" xmlns:xlink="http://www.w3.org/1999/xlink" contentStyleType="text/css" data-diagram-type="DESCRIPTION" height="540px" preserveAspectRatio="none" style="width:659px;height:540px;background:#FFFFFF;" version="1.1" viewBox="0 0 659 540" width="659px" zoomAndPan="magnify"><?plantuml 1.2026.6?><defs/><g><!--cluster Deeper--><g class="cluster" data-qualified-name="Deeper" data-source-line="6" id="ent0003"><rect fill="none" height="519" rx="2.5" ry="2.5" style="stroke:#181818;stroke-width:1;" width="257.71" x="113.51" y="7"/><text fill="#000000" font-family="sans-serif" font-size="14" font-weight="700" lengthAdjust="spacing" textLength="51.3516" x="216.6892" y="22.5352">Deeper</text></g><!--entity Run Scan--><g class="entity" data-qualified-name="Deeper.Run Scan" data-source-line="7" id="ent0004"><ellipse cx="242.3622" cy="56.999" fill="#F1F1F1" rx="46.6922" ry="14.659" style="stroke:#181818;stroke-width:0.5;"/><text fill="#000000" font-family="sans-serif" font-size="14" lengthAdjust="spacing" textLength="61.79" x="211.4671" y="61.7431">Run Scan</text></g><!--entity List Plugins--><g class="entity" data-qualified-name="Deeper.List Plugins" data-source-line="8" id="ent0006"><ellipse cx="242.3627" cy="222.999" fill="#F1F1F1" rx="57.7227" ry="14.659" style="stroke:#181818;stroke-width:0.5;"/><text fill="#000000" font-family="sans-serif" font-size="14" lengthAdjust="spacing" textLength="77.3896" x="203.6679" y="227.7431">List Plugins</text></g><!--entity Check Health--><g class="entity" data-qualified-name="Deeper.Check Health" data-source-line="9" id="ent0008"><ellipse cx="242.3633" cy="287.9967" fill="#F1F1F1" rx="63.9333" ry="15.1867" style="stroke:#181818;stroke-width:0.5;"/><text fill="#000000" font-family="sans-serif" font-size="14" lengthAdjust="spacing" textLength="89.749" x="197.4888" y="292.7408">Check Health</text></g><!--entity View Metrics--><g class="entity" data-qualified-name="Deeper.View Metrics" data-source-line="10" id="ent0010"><ellipse cx="242.3581" cy="352.9996" fill="#F1F1F1" rx="62.3481" ry="14.8696" style="stroke:#181818;stroke-width:0.5;"/><text fill="#000000" font-family="sans-serif" font-size="14" lengthAdjust="spacing" textLength="85.3945" x="199.6609" y="357.7438">View Metrics</text></g><!--entity Query Trace Database--><g class="entity" data-qualified-name="Deeper.Query Trace Database" data-source-line="11" id="ent0012"><ellipse cx="242.3574" cy="422.9975" fill="#F1F1F1" rx="88.2374" ry="20.0475" style="stroke:#181818;stroke-width:0.5;"/><text fill="#000000" font-family="sans-serif" font-size="14" lengthAdjust="spacing" textLength="149.2148" x="167.75" y="427.7416">Query Trace Database</text></g><!--entity Configure Domain Rate Limits--><g class="entity" data-qualified-name="Deeper.Configure Domain Rate Limits" data-source-line="12" id="ent0014"><ellipse cx="242.3618" cy="148.0004" fill="#F1F1F1" rx="112.8518" ry="24.9704" style="stroke:#181818;stroke-width:0.5;"/><text fill="#000000" font-family="sans-serif" font-size="14" lengthAdjust="spacing" textLength="203.6494" x="140.5371" y="152.7445">Configure Domain Rate Limits</text></g><!--entity Run Benchmark--><g class="entity" data-qualified-name="Deeper.Run Benchmark" data-source-line="13" id="ent0016"><ellipse cx="242.363" cy="494.0006" fill="#F1F1F1" rx="70.053" ry="16.4106" style="stroke:#181818;stroke-width:0.5;"/><text fill="#000000" font-family="sans-serif" font-size="14" lengthAdjust="spacing" textLength="105.7725" x="189.4767" y="498.7447">Run Benchmark</text></g><!--entity Operator--><g class="entity" data-qualified-name="Operator" data-source-line="3" id="ent0001"><ellipse cx="36.2559" cy="258.26" fill="#F1F1F1" rx="8" ry="8" style="stroke:#181818;stroke-width:0.5;"/><path d="M36.2559,266.26 L36.2559,293.26 M23.2559,274.26 L49.2559,274.26 M36.2559,293.26 L23.2559,308.26 M36.2559,293.26 L49.2559,308.26" fill="none" style="stroke:#181818;stroke-width:0.5;"/><text fill="#000000" font-family="sans-serif" font-size="14" lengthAdjust="spacing" textLength="60.5117" x="6" y="323.2952">Operator</text></g><!--entity Ext--><g class="entity" data-qualified-name="Ext" data-source-line="4" id="ent0002"><ellipse cx="590.8035" cy="27.26" fill="#F1F1F1" rx="8" ry="8" style="stroke:#181818;stroke-width:0.5;"/><path d="M590.8035,35.26 L590.8035,62.26 M577.8035,43.26 L603.8035,43.26 M590.8035,62.26 L577.8035,77.26 M590.8035,62.26 L603.8035,77.26" fill="none" style="stroke:#181818;stroke-width:0.5;"/><text fill="#000000" font-family="sans-serif" font-size="14" lengthAdjust="spacing" textLength="107.167" x="537.22" y="92.2952">External Service</text></g><!--link Operator to Run Scan--><g class="link" data-entity-1="ent0001" data-entity-2="ent0004" data-link-type="association" data-source-line="7" id="lnk5"><path d="M42.11,249.44 C49.19,208.64 66.13,144.89 105.51,106 C130.67,81.16 169.32,68.82 198.98,62.74" fill="none" id="Operator-Run Scan" style="stroke:#181818;stroke-width:1;"/></g><!--link Operator to List Plugins--><g class="link" data-entity-1="ent0001" data-entity-2="ent0006" data-link-type="association" data-source-line="8" id="lnk7"><path d="M66.89,271.92 C78.66,266 92.49,259.62 105.51,255 C134.29,244.79 167.65,236.88 194.11,231.48" fill="none" id="Operator-List Plugins" style="stroke:#181818;stroke-width:1;"/></g><!--link Operator to Check Health--><g class="link" data-entity-1="ent0001" data-entity-2="ent0008" data-link-type="association" data-source-line="9" id="lnk9"><path d="M66.93,288 C95.9,288 140.9,288 177.93,288" fill="none" id="Operator-Check Health" style="stroke:#181818;stroke-width:1;"/></g><!--link Operator to View Metrics--><g class="link" data-entity-1="ent0001" data-entity-2="ent0010" data-link-type="association" data-source-line="10" id="lnk11"><path d="M66.89,304.08 C78.66,310 92.49,316.38 105.51,321 C133.37,330.88 165.53,338.61 191.57,344" fill="none" id="Operator-View Metrics" style="stroke:#181818;stroke-width:1;"/></g><!--link Operator to Query Trace Database--><g class="link" data-entity-1="ent0001" data-entity-2="ent0012" data-link-type="association" data-source-line="11" id="lnk13"><path d="M56.07,326.54 C67.72,346.67 84.49,370.15 105.51,385 C123.71,397.86 146.14,406.38 167.49,412.02" fill="none" id="Operator-Query Trace Database" style="stroke:#181818;stroke-width:1;"/></g><!--link Operator to Configure Domain Rate Limits--><g class="link" data-entity-1="ent0001" data-entity-2="ent0014" data-link-type="association" data-source-line="12" id="lnk15"><path d="M56.55,249.26 C68.25,229.32 84.91,206.09 105.51,191 C121.08,179.6 139.77,171.15 158.24,164.92" fill="none" id="Operator-Configure Domain Rate Limits" style="stroke:#181818;stroke-width:1;"/></g><!--link Operator to Run Benchmark--><g class="link" data-entity-1="ent0001" data-entity-2="ent0016" data-link-type="association" data-source-line="13" id="lnk17"><path d="M42.09,326.58 C49.11,366.12 65.95,426.54 105.51,461 C124.27,477.34 149.79,485.89 173.64,490.26" fill="none" id="Operator-Run Benchmark" style="stroke:#181818;stroke-width:1;"/></g><!--link Run Scan to Configure Domain Rate Limits--><g class="link" data-entity-1="ent0004" data-entity-2="ent0014" data-link-type="dependency" data-source-line="15" id="lnk18"><path d="M242.36,71.98 C242.36,85.72 242.36,101.35 242.36,117.65" fill="none" id="Run Scan-to-Configure Domain Rate Limits" style="stroke:#181818;stroke-width:1;stroke-dasharray:7,7;"/><polygon fill="#181818" points="242.36,122.65,246.36,113.65,242.36,117.65,238.36,113.65,242.36,122.65" style="stroke:#181818;stroke-width:1;stroke-linejoin:miter;stroke-miterlimit:10;"/><text fill="#000000" font-family="sans-serif" font-size="13" lengthAdjust="spacing" textLength="52.3618" x="204.86" y="102.4084">includes</text></g><!--link Run Scan to Ext--><g class="link" data-entity-1="ent0004" data-entity-2="ent0002" data-link-type="dependency" data-source-line="16" id="lnk19"><path d="M289.37,57 C353.42,57 464.19,57 531.79,57" fill="none" id="Run Scan-to-Ext" style="stroke:#181818;stroke-width:1;"/><polygon fill="#181818" points="536.79,57,527.79,53,531.79,57,527.79,61,536.79,57" style="stroke:#181818;stroke-width:1;stroke-linejoin:miter;stroke-miterlimit:10;"/><text fill="#000000" font-family="sans-serif" font-size="13" lengthAdjust="spacing" textLength="118.8979" x="388.22" y="53.5684">queries via plugins</text></g><?plantuml-src XL39JWCn3BtdAvvweeVX0pZqm29nA09QnDsaxepLJ58Sfu0G_qw6HKWG2PzilyLBuAt14bJwmR0HPM-IedFaBIckzwnKawzoTl5ih942rgm7yJm3PTIcSvEGOXyOvynLXLU76jy6w3eShKh4sbES_uMMaWqteVGISmC-6zZlSCaKR6Z0zy9Fk69JyItrRM5zmPsIhzkHqGDbRWr9SIjzqKfA8qd4Yeonb56ivJfTSyhH3oFfRku-23ydudZnZoDE8D67ik7yMzjrY-chbV5OLnVEE0XX__aUz-RU0G00?></g></svg>
